<?xml version="1.0" encoding="utf-8"?>
<!-- Generator: Adobe Illustrator 24.0.0, SVG Export Plug-In . SVG Version: 6.00 Build 0)  -->
<svg version="1.1" id="Capa_1" xmlns="http://www.w3.org/2000/svg" xmlns:xlink="http://www.w3.org/1999/xlink" x="0px" y="0px"
	 viewBox="0 0 308.4 308.4" style="enable-background:new 0 0 308.4 308.4;" xml:space="preserve">
<style type="text/css">
	.st0{fill:#FFFFFF;}
</style>
<g>
	<g>
		<g>
			<path class="st0" d="M284.7,186c-0.6-2.1-1.4-4.1-2.5-5.7c-1.2-1.8-2.8-3.4-4.6-4.7c-1.7-1.2-3.6-2.1-5.7-2.7
				c-4-1.2-8.2-1.3-12.4-0.2l-0.7,0.2c-0.3,0.1-0.5,0.2-0.8,0.2l-2,0.7c-0.6,0.2-1.2,0.4-1.7,0.6l-8.1,3.4c-0.5,0.2-1,0.5-1.5,0.7
				l-0.7,0.4c-1.3,0.7-2.6,1.3-3.9,2c-1.5,0.8-2.9,1.6-4.5,2.6c-0.5,0.3-1,0.6-1.5,0.9l-1.3,0.8c-0.6,0.4-1.1,0.7-1.7,1.1l-2.1,1.4
				c-0.5,0.3-0.9,0.6-1.5,1l-0.7,0.5c-1.1,0.7-2.1,1.4-3.2,2.2l-1.1,0.8c-5.3,3.9-10.7,8.2-16,12.8c-4.8,4.2-9.7,8.8-14.9,14
				c-2.4,2.4-4.8,4.9-7.1,7.3c-2.3,2.5-4.6,5-6.9,7.5c-2.3,2.6-4.5,5.2-6.6,7.8l-0.6,0.7c-0.3,0.2-0.4,0.3-0.7,0.4
				c-0.1,0.1-0.6,0.2-1.1,0.1l-0.5-0.2l-1.2-1.1c-0.4-0.5-0.8-0.9-1.3-1.4c-1-0.9-2-1.8-3.1-2.4c-2.3-1.4-5.1-2.2-7.9-2.3
				c-2.5-0.1-5,0.4-7.4,1.5c-1,0.4-2,0.9-3.1,1.6c-0.9,0.6-1.9,1.2-2.7,2c-0.8,0.7-1.6,1.4-2.4,2.2c-0.8,0.8-1.4,1.6-2.1,2.5
				l-3.7,4.8c-0.2,0.3-0.4,0.5-0.7,0.8l-1.5,1.8c-2.1,2.3-4.3,4.5-6.6,6.6c-2.5,2.2-4.9,4.2-7.3,5.9c-2.5,1.9-5.1,3.5-7.7,4.9
				c-1.3,0.7-2.7,1.3-4.1,1.9c-0.2,0.1-0.4,0.1-0.8,0.3l-3.3,1c-1,0.3-2,0.5-2.9,0.8l-6.4,1.5c-2.9,0.6-6,1.1-9.5,1.6
				c-1.5,0.2-3,0.3-4.7,0.5l-2.4,0.2c-0.5,0-1,0.1-1.5,0.1l-0.8,0c-3.2,0.1-6.4,0-9.5-0.2c-6.4-0.5-12.6-1.7-18.4-3.8
				c-5.6-2-11.3-4.9-17.1-8.6l-1.3-0.8l-3.6,5l1.2,0.9c1.4,1.1,2.7,2.2,4.1,3.1c1.4,1,2.9,2,4.4,2.9c3,1.9,6.1,3.5,9.3,4.9
				c6.3,2.8,13.2,4.7,20.4,5.7c4,0.5,8.2,0.8,12.4,0.8c2.8,0,5.7-0.1,8.6-0.4c3.5-0.3,7-0.7,10.4-1.3l6.5-1.2
				c1.3-0.3,2.5-0.5,3.7-0.8l0.9-0.2c0.5-0.1,1.1-0.3,1.7-0.4l1.5-0.4c0.5-0.1,0.9-0.3,1.2-0.4c1.7-0.6,3.5-1.3,5.2-2.2
				c3.1-1.5,6.2-3.3,9.4-5.5c3-2.1,5.8-4.3,8.5-6.5c2.6-2.3,5.2-4.8,7.7-7.4l1.7-1.9c0.4-0.4,0.8-0.9,1.3-1.5l3.7-4.7
				c1.5-1.9,3.3-3.4,5.1-4.1c1.2-0.5,1.9-0.5,2.4-0.5c0.6,0,1.1,0.2,1.6,0.4c0.3,0.2,0.6,0.4,0.9,0.7c0.1,0.1,0.2,0.2,0.4,0.4
				l1.1,1.2c1.9,2.1,4.6,3.6,7.4,4.3c3,0.7,5.9,0.5,8.5-0.5c1.6-0.6,3-1.5,4.1-2.3l1-0.9c0.1-0.1,0.3-0.3,0.6-0.6l1.1-1.3
				c2.1-2.5,4.2-5,6.3-7.5c4.1-4.7,8.5-9.6,13.3-14.5c4.4-4.5,9-9,14-13.7c2.4-2.2,4.8-4.4,7.4-6.5c2.2-1.9,4.6-3.9,7.5-6.2l0.9-0.7
				c1-0.8,2-1.5,3-2.3l4-2.9c0.5-0.4,1.1-0.7,1.6-1.1l1.1-0.7c0.4-0.3,0.8-0.6,1.2-0.8l1.3-0.9c0.9-0.6,1.8-1.2,2.8-1.8
				c1.1-0.7,2.2-1.3,3.3-2l0.8-0.4c0.4-0.2,0.8-0.4,1.2-0.7l7.3-3.6c0.4-0.2,0.9-0.4,1.3-0.6l2.8-1.1c1.2-0.4,2.4-0.6,3.7-0.7
				c1.3,0,2.5,0,3.7,0.3c1.3,0.3,2.4,0.7,3.4,1.3c1.1,0.6,1.9,1.4,2.6,2.3c0.7,0.9,1.3,2,1.7,3.3c0.4,1.1,0.7,2.4,0.9,4
				c0.3,2.6,0.2,5.4-0.3,9.1l-0.2,1.5l6.1,1.2l0.4-1.5c0.5-1.9,0.8-3.6,1-5.3c0.3-2,0.4-3.8,0.4-5.6
				C285.4,189.7,285.2,187.8,284.7,186z"/>
		</g>
		<g>
			<path class="st0" d="M180.7,28.7c3.1,0.6,6.2,1.3,9,2c3.4,0.9,6.1,1.7,8.5,2.7l0.8,0.3c0.4,0.2,0.8,0.3,1.1,0.5l2,1
				c0.4,0.2,0.8,0.4,1.1,0.6l2.2,1.6c0.9,0.7,1.8,1.6,2.6,2.7l0.3,0.4c0.1,0.1,0.2,0.2,0.2,0.3l1.7,2.7c1.4,2.6,2.5,5.4,3.7,8.2
				l0.7,1.7c0.9,2.4,1.9,4.7,2.9,7.1c0.6,1.5,1.3,2.9,1.9,4.5l30.6,66.8l-16.9,6.3c-1.6,0.7-2.9,2-3.6,3.6c-0.7,1.6-0.7,3.5,0,5.1
				c0.7,1.6,2,2.9,3.6,3.6c0.8,0.3,1.7,0.5,2.5,0.5c0.9,0,1.8-0.2,2.6-0.5l22.6-9.5l0.4-0.2c3-1.5,4.2-5.2,2.7-8.2l-34.1-67.3
				l-2.2-4.3c-0.6-1.3-1.3-2.7-1.9-4c-1-2.2-2-4.4-3-6.7l-0.9-2c-1.3-2.9-2.6-5.9-4.4-8.8l-0.9-1.4c-0.2-0.3-0.4-0.6-0.6-0.9
				l-0.7-0.9c-0.2-0.3-0.4-0.5-0.7-0.8l-0.3-0.3c-1.3-1.5-2.6-2.8-4-3.9l-1.6-1.1c-0.2-0.1-0.4-0.3-0.7-0.5l-0.5-0.3
				c-0.6-0.4-1.2-0.7-1.8-1l-2.2-1c-0.6-0.3-1.2-0.5-1.8-0.7l-0.7-0.3c-2.7-1-5.7-1.8-9.6-2.6c-3-0.6-6.2-1.2-9.5-1.7
				c-3.1-0.5-6.3-0.9-9.4-1.4l-1.5-0.2l-1,6.2l1.5,0.3C174.5,27.5,177.6,28,180.7,28.7z"/>
		</g>
		<g>
			<path class="st0" d="M157.9,87.9l2.9,1.6c0.3,0.1,0.5,0.3,0.8,0.4c0.5,0.2,1,0.4,1.5,0.6c1,0.4,2,0.7,3,1l5.7,21.2l7-20
				c2.2-0.2,4.4-0.7,6.4-1.5c3.8-1.5,7.3-3.8,10.3-6.7c2.9-2.8,5.2-5.9,7-9.3l0.7-1.3l-5.1-3.3l-0.9,1.2c-1.9,2.5-4.2,4.7-6.8,6.5
				c-2.4,1.7-5.2,2.9-7.9,3.5c-2.5,0.5-5.2,0.3-8-0.5c-1.3-0.3-2.6-0.8-3.9-1.5c-0.6-0.3-1.3-0.6-1.9-1c-0.3-0.2-0.6-0.3-0.8-0.5
				l-0.1,0c-0.6-1.2-1.6-2.2-2.8-2.9c-1.7-0.9-3.6-1.2-5.4-0.7c-1.8,0.5-3.4,1.7-4.3,3.4c-0.9,1.7-1.2,3.6-0.7,5.4
				C155,85.4,156.2,86.9,157.9,87.9z"/>
		</g>
		<g>
			<path class="st0" d="M44.5,242.6l26.7,4.7l1.2-6.2l-22.7-4.9l20.1-75.1c0.9-3.3,1.8-6.7,2.6-10c0.7-2.9,1.3-5.9,2-8.8l0.3-1.5
				c0.7-3.2,1.4-6.3,2.3-9.1c0.4-1.4,1-2.7,1.5-4c0.6-1.2,1.3-2.3,2-3.3c0.7-0.9,1.6-1.9,2.7-2.8c1.3-1.1,2.4-1.9,3.5-2.6
				c2.2-1.4,4.8-2.8,8.2-4.4c2.7-1.2,5.6-2.5,9.1-3.8c3.1-1.2,6.2-2.3,9.7-3.5c1.7-0.7,3-1.9,3.7-3.6c0.7-1.6,0.7-3.4,0.1-5.1
				c-0.7-1.7-1.9-3-3.6-3.7c-1.6-0.7-3.5-0.7-5.1-0.1c-3.2,1.3-6.4,2.6-9.6,3.9c-3.6,1.5-6.8,3-9.6,4.4c-3.9,2-6.9,3.7-9.5,5.6
				c-1.5,1-3,2.2-4.7,3.8c-1.6,1.6-3,3.1-4.1,4.7c-1.2,1.7-2.2,3.5-3.1,5.5c-0.8,1.8-1.4,3.7-1.9,5.6c-0.9,3.4-1.5,6.7-2.1,10
				l-0.3,1.9c-0.5,2.9-1,5.7-1.6,8.5c-0.6,3.3-1.4,6.5-2.1,9.8L42,236.2l-0.5,2.2c-0.2,1,0.1,1.9,0.6,2.7
				C42.7,241.9,43.5,242.4,44.5,242.6z"/>
		</g>
		<g>
			<path class="st0" d="M110,170.5c-0.4,0.2-0.8,0.3-1.2,0.5l-0.8,0.4c-0.4,0.2-0.7,0.4-1,0.6c-0.9,0.5-1.9,1.1-2.7,1.7
				c-1.6,1.2-3.2,2.5-4.7,4.1c-1.5,1.6-2.8,3.2-3.9,4.8l-0.8,1.2l4.8,3.8l1-1.1c1-1.1,2.2-2.2,3.7-3.3c1.4-1,2.8-1.9,4.1-2.6
				c3-1.5,5.9-2.3,8.5-2.1c2.9,0.1,5.8,0.9,8.6,2.2c1.4,0.7,2.7,1.4,3.9,2.3l1.3,1c0.2,0.1,0.4,0.3,0.6,0.5c0.3,0.2,0.6,0.5,0.8,0.7
				l0.6,0.6c0.3,0.3,0.6,0.6,0.9,0.8c1.2,0.9,2.6,1.4,4,1.4c0.3,0,0.6,0,0.9-0.1c1.8-0.2,3.3-1.2,4.4-2.6c1.1-1.4,1.5-3.2,1.3-5
				c-0.2-1.8-1.2-3.3-2.7-4.5l-1.5-1c-0.5-0.3-1-0.6-1.4-0.9c-0.2-0.1-0.4-0.2-0.6-0.3c0-0.1,0-0.1,0-0.2l-2-23.5l-9.9,19.2
				c-3.3-0.6-6.6-0.8-9.7-0.4C114.2,169,112,169.6,110,170.5z"/>
		</g>
	</g>
</g>
</svg>
