<?xml version="1.0" encoding="utf-8"?>
<!-- Generator: Adobe Illustrator 24.0.0, SVG Export Plug-In . SVG Version: 6.00 Build 0)  -->
<svg version="1.1" id="Capa_1" xmlns="http://www.w3.org/2000/svg" xmlns:xlink="http://www.w3.org/1999/xlink" x="0px" y="0px"
	 viewBox="0 0 979.5 990.5" style="enable-background:new 0 0 979.5 990.5;" xml:space="preserve">
<style type="text/css">
	.st0{fill:#FFFFFF;}
	.st1{fill:url(#SVGID_1_);}
	.st2{fill:url(#SVGID_2_);}
	.st3{opacity:0.4;}
	.st4{fill:url(#SVGID_3_);}
	.st5{fill:url(#SVGID_4_);}
	.st6{opacity:0.6;}
	.st7{fill:url(#SVGID_5_);}
	.st8{fill:url(#SVGID_6_);}
	.st9{opacity:0.1;}
	.st10{fill:url(#SVGID_7_);}
	.st11{fill:url(#SVGID_8_);}
	.st12{opacity:0.2;}
	.st13{fill:url(#SVGID_9_);}
	.st14{fill:url(#SVGID_10_);}
	.st15{fill:url(#SVGID_11_);}
	.st16{fill:url(#SVGID_12_);}
	.st17{opacity:5.000000e-02;}
	.st18{fill:url(#SVGID_13_);}
	.st19{fill:url(#SVGID_14_);}
	.st20{fill:url(#SVGID_15_);}
	.st21{fill:url(#SVGID_16_);}
	.st22{fill:url(#SVGID_17_);}
	.st23{fill:url(#SVGID_18_);}
	.st24{opacity:0.8;}
	.st25{fill:url(#SVGID_19_);}
	.st26{fill:url(#SVGID_20_);}
	.st27{fill:url(#SVGID_21_);}
	.st28{fill:url(#SVGID_22_);}
	.st29{fill:url(#SVGID_23_);}
	.st30{fill:url(#SVGID_24_);}
	.st31{fill:url(#SVGID_25_);}
	.st32{fill:url(#SVGID_26_);}
	.st33{fill:url(#SVGID_27_);}
	.st34{fill:url(#SVGID_28_);}
	.st35{fill:url(#SVGID_29_);}
	.st36{fill:url(#SVGID_30_);}
	.st37{fill:url(#SVGID_31_);}
	.st38{fill:url(#SVGID_32_);}
	.st39{fill:url(#SVGID_33_);}
	.st40{fill:url(#SVGID_34_);}
	.st41{fill:url(#SVGID_35_);}
	.st42{fill:url(#SVGID_36_);}
	.st43{fill:url(#SVGID_37_);}
	.st44{fill:url(#SVGID_38_);}
	.st45{fill:url(#SVGID_39_);}
	.st46{fill:url(#SVGID_40_);}
</style>
<g>
	<g>
		<path class="st0" d="M612.1,517.8c0.1-0.4,0.1-0.7,0.1-0.9c-0.2-0.4-0.7-0.7-1.4-1c-0.5-0.3-1-0.4-1.5-0.3c-0.4,0-0.8,0.1-1.2,0.2
			c-0.3,0.1-0.7,0.2-1.1,0.3c-0.1,0-0.3,0.1-0.4,0.2c-1.3,0.6-7.1,2.4-8.4,3.5c-1.4,1.1-0.1,3.9,3.8,3.5c0.4,0,0.9-0.2,1.3-0.3
			l0.3-0.1c0.1,0,0.2-0.1,0.3-0.2c0.6-0.3,1.1-0.6,1.5-0.9C607.1,520.5,612,518.2,612.1,517.8z"/>
		<linearGradient id="SVGID_1_" gradientUnits="userSpaceOnUse" x1="269.3057" y1="528.7038" x2="590.5867" y2="528.7038">
			<stop  offset="0" style="stop-color:#FFFFFF;stop-opacity:0"/>
			<stop  offset="1" style="stop-color:#FFFFFF"/>
		</linearGradient>
		<path class="st1" d="M586.3,529.1c-73.3,23.4-131.1,28.1-200.5,27.8c-37.8-0.2-67.3-3.6-87.1-10.2c-14.5-4.9-23.8-11.5-27.3-19.8
			c-6.8-16.3,4.5-25,14.3-26.3c2-0.3,4-0.2,5.8,0.1c1,0.2,1.9,0.5,2.7,0.8c6.2,2.7,7.2,9.4-0.3,14.6c-6.7,4.7-8.6,16,15.2,24.1
			c0.5,0.2,1.1,0.4,1.7,0.6c32.6,10.6,81.3,12.9,152.2,9.3c72.7-6.1,112.4-20.6,121.6-24.5c2.4-0.6,3.4-0.5,5.2,0.3
			C591.3,526.8,591.1,527.7,586.3,529.1z"/>
	</g>
	<g>
		<path class="st0" d="M588.7,560.1c0.1-0.4,0.1-0.7,0.1-0.9c-0.2-0.4-0.7-0.7-1.4-1c-0.5-0.3-1-0.4-1.5-0.3c-0.4,0-0.8,0.1-1.2,0.2
			c-0.3,0.1-0.7,0.2-1.1,0.3c-0.1,0-0.3,0.1-0.4,0.2c-1.3,0.6-7.1,2.4-8.4,3.5c-1.4,1.1-0.1,3.9,3.8,3.5c0.4,0,0.9-0.2,1.3-0.3
			l0.3-0.1c0.1,0,0.2-0.1,0.3-0.2c0.6-0.3,1.1-0.6,1.5-0.9C583.7,562.8,588.6,560.6,588.7,560.1z"/>
		<linearGradient id="SVGID_2_" gradientUnits="userSpaceOnUse" x1="245.8794" y1="571.0326" x2="567.1604" y2="571.0326">
			<stop  offset="0" style="stop-color:#FFFFFF;stop-opacity:0"/>
			<stop  offset="1" style="stop-color:#FFFFFF"/>
		</linearGradient>
		<path class="st2" d="M562.9,571.5c-73.3,23.4-131.1,28.1-200.5,27.8c-37.8-0.2-67.3-3.6-87.1-10.2c-14.5-4.9-23.8-11.5-27.3-19.8
			c-6.8-16.3,4.5-25,14.3-26.3c2-0.3,4-0.2,5.8,0.1c1,0.2,1.9,0.5,2.7,0.8c6.2,2.7,7.2,9.4-0.3,14.6c-6.7,4.7-8.6,16,15.2,24.1
			c0.5,0.2,1.1,0.4,1.7,0.6c32.6,10.6,81.3,12.9,152.2,9.3c72.7-6.1,112.4-20.6,121.6-24.5c2.4-0.6,3.4-0.5,5.2,0.3
			C567.9,569.1,567.7,570,562.9,571.5z"/>
	</g>
	<g class="st3">
		<g>
			<path class="st0" d="M510.1,691.6c0.1-0.4,0.1-0.7,0.1-0.9c-0.2-0.4-0.7-0.7-1.4-1c-0.5-0.3-1-0.4-1.5-0.3
				c-0.4,0-0.8,0.1-1.2,0.2c-0.3,0.1-0.7,0.2-1.1,0.3c-0.1,0-0.3,0.1-0.4,0.2c-1.3,0.6-7.1,2.4-8.4,3.5c-1.4,1.1-0.1,3.9,3.8,3.5
				c0.4,0,0.9-0.2,1.3-0.3l0.3-0.1c0.1,0,0.2-0.1,0.3-0.2c0.6-0.3,1.1-0.6,1.5-0.9C505.1,694.3,510,692,510.1,691.6z"/>
			<linearGradient id="SVGID_3_" gradientUnits="userSpaceOnUse" x1="167.2995" y1="702.4653" x2="488.5805" y2="702.4653">
				<stop  offset="0" style="stop-color:#FFFFFF;stop-opacity:0"/>
				<stop  offset="1" style="stop-color:#FFFFFF"/>
			</linearGradient>
			<path class="st4" d="M484.3,702.9c-73.3,23.4-131.1,28.1-200.5,27.8c-37.8-0.2-67.3-3.6-87.1-10.2c-14.5-4.9-23.8-11.5-27.3-19.8
				c-6.8-16.3,4.5-25,14.3-26.3c2-0.3,4-0.2,5.8,0.1c1,0.2,1.9,0.5,2.7,0.8c6.2,2.7,7.2,9.4-0.3,14.6c-6.7,4.7-8.6,16,15.2,24.1
				c0.5,0.2,1.1,0.4,1.7,0.6c32.6,10.6,81.3,12.9,152.2,9.3c72.7-6.1,112.4-20.6,121.6-24.5c2.4-0.6,3.4-0.5,5.2,0.3
				C489.3,700.6,489.1,701.4,484.3,702.9z"/>
		</g>
		<g>
			<path class="st0" d="M519.5,683.3c-0.1,0.4-0.1,0.7-0.1,0.9c0.2,0.4,0.7,0.7,1.4,1c0.5,0.3,1,0.4,1.5,0.3c0.4,0,0.8-0.1,1.2-0.2
				c0.3-0.1,0.7-0.2,1.1-0.3c0.1,0,0.3-0.1,0.4-0.2c1.3-0.6,7.1-2.4,8.4-3.5c1.4-1.1,0.1-3.9-3.8-3.5c-0.4,0-0.9,0.2-1.3,0.3
				l-0.3,0.1c-0.1,0-0.2,0.1-0.3,0.2c-0.6,0.3-1.1,0.6-1.5,0.9C524.6,680.6,519.7,682.9,519.5,683.3z"/>
			<linearGradient id="SVGID_4_" gradientUnits="userSpaceOnUse" x1="541.107" y1="672.4306" x2="862.388" y2="672.4306">
				<stop  offset="0" style="stop-color:#FFFFFF"/>
				<stop  offset="1" style="stop-color:#FFFFFF;stop-opacity:0"/>
			</linearGradient>
			<path class="st5" d="M545.4,672c73.3-23.4,131.1-28.1,200.5-27.8c37.8,0.2,67.3,3.6,87.1,10.2c14.5,4.9,23.8,11.5,27.3,19.8
				c6.8,16.3-4.5,25-14.3,26.3c-2,0.3-4,0.2-5.8-0.1c-1-0.2-1.9-0.5-2.7-0.8c-6.2-2.7-7.2-9.4,0.3-14.6c6.7-4.7,8.6-16-15.2-24.1
				c-0.5-0.2-1.1-0.4-1.7-0.6c-32.6-10.6-81.3-12.9-152.2-9.3c-72.7,6.1-112.4,20.6-121.6,24.5c-2.4,0.6-3.4,0.5-5.2-0.3
				C540.4,674.3,540.6,673.5,545.4,672z"/>
		</g>
	</g>
	<g class="st6">
		<g>
			<path class="st0" d="M533.6,646.9c0.1-0.4,0.1-0.7,0.1-0.9c-0.2-0.4-0.7-0.7-1.4-1c-0.5-0.3-1-0.4-1.5-0.3
				c-0.4,0-0.8,0.1-1.2,0.2c-0.3,0.1-0.7,0.2-1.1,0.3c-0.1,0-0.3,0.1-0.4,0.2c-1.3,0.6-7.1,2.4-8.4,3.5c-1.4,1.1-0.1,3.9,3.8,3.5
				c0.4,0,0.9-0.2,1.3-0.3l0.3-0.1c0.1,0,0.2-0.1,0.3-0.2c0.6-0.3,1.1-0.6,1.5-0.9C528.6,649.6,533.5,647.3,533.6,646.9z"/>
			<linearGradient id="SVGID_5_" gradientUnits="userSpaceOnUse" x1="190.7893" y1="657.8096" x2="512.0703" y2="657.8096">
				<stop  offset="0" style="stop-color:#FFFFFF;stop-opacity:0"/>
				<stop  offset="1" style="stop-color:#FFFFFF"/>
			</linearGradient>
			<path class="st7" d="M507.8,658.3c-73.3,23.4-131.1,28.1-200.5,27.8c-37.8-0.2-67.3-3.6-87.1-10.2c-14.5-4.9-23.8-11.5-27.3-19.8
				c-6.8-16.3,4.5-25,14.3-26.3c2-0.3,4-0.2,5.8,0.1c1,0.2,1.9,0.5,2.7,0.8c6.2,2.7,7.2,9.4-0.3,14.6c-6.7,4.7-8.6,16,15.2,24.1
				c0.5,0.2,1.1,0.4,1.7,0.6c32.6,10.6,81.3,12.9,152.2,9.3c72.7-6.1,112.4-20.6,121.6-24.5c2.4-0.6,3.4-0.5,5.2,0.3
				C512.8,655.9,512.6,656.8,507.8,658.3z"/>
		</g>
		<g>
			<path class="st0" d="M543.8,639.2c-0.1,0.4-0.1,0.7-0.1,0.9c0.2,0.4,0.7,0.7,1.4,1c0.5,0.3,1,0.4,1.5,0.3c0.4,0,0.8-0.1,1.2-0.2
				c0.3-0.1,0.7-0.2,1.1-0.3c0.1,0,0.3-0.1,0.4-0.2c1.3-0.6,7.1-2.4,8.4-3.5c1.4-1.1,0.1-3.9-3.8-3.5c-0.4,0-0.9,0.2-1.3,0.3
				l-0.3,0.1c-0.1,0-0.2,0.1-0.3,0.2c-0.6,0.3-1.1,0.6-1.5,0.9C548.9,636.5,544,638.8,543.8,639.2z"/>
			<linearGradient id="SVGID_6_" gradientUnits="userSpaceOnUse" x1="565.3894" y1="628.3078" x2="886.6704" y2="628.3078">
				<stop  offset="0" style="stop-color:#FFFFFF"/>
				<stop  offset="1" style="stop-color:#FFFFFF;stop-opacity:0"/>
			</linearGradient>
			<path class="st8" d="M569.7,627.9c73.3-23.4,131.1-28.1,200.5-27.8c37.8,0.2,67.3,3.6,87.1,10.2c14.5,4.9,23.8,11.5,27.3,19.8
				c6.8,16.3-4.5,25-14.3,26.3c-2,0.3-4,0.2-5.8-0.1c-1-0.2-1.9-0.5-2.7-0.8c-6.2-2.7-7.2-9.4,0.3-14.6c6.7-4.7,8.6-16-15.2-24.1
				c-0.5-0.2-1.1-0.4-1.7-0.6c-32.6-10.6-81.3-12.9-152.2-9.3c-72.7,6.1-112.4,20.6-121.6,24.5c-2.4,0.6-3.4,0.5-5.2-0.3
				C564.7,630.2,564.9,629.3,569.7,627.9z"/>
		</g>
	</g>
	<g class="st9">
		<g>
			<path class="st0" d="M469.2,780.1c0.1-0.4,0.1-0.7,0.1-0.9c-0.2-0.4-0.7-0.7-1.4-1c-0.5-0.3-1-0.4-1.5-0.3
				c-0.4,0-0.8,0.1-1.2,0.2c-0.3,0.1-0.7,0.2-1.1,0.3c-0.1,0-0.3,0.1-0.4,0.2c-1.3,0.6-7.1,2.4-8.4,3.5c-1.4,1.1-0.1,3.9,3.8,3.5
				c0.4,0,0.9-0.2,1.3-0.3l0.3-0.1c0.1,0,0.2-0.1,0.3-0.2c0.6-0.3,1.1-0.6,1.5-0.9C464.1,782.8,469,780.6,469.2,780.1z"/>
			<linearGradient id="SVGID_7_" gradientUnits="userSpaceOnUse" x1="126.3314" y1="791.0256" x2="447.6124" y2="791.0256">
				<stop  offset="0" style="stop-color:#FFFFFF;stop-opacity:0"/>
				<stop  offset="1" style="stop-color:#FFFFFF"/>
			</linearGradient>
			<path class="st10" d="M443.3,791.5c-73.3,23.4-131.1,28.1-200.5,27.8c-37.8-0.2-67.3-3.6-87.1-10.2
				c-14.5-4.9-23.8-11.5-27.3-19.8c-6.8-16.3,4.5-25,14.3-26.3c2-0.3,4-0.2,5.8,0.1c1,0.2,1.9,0.5,2.7,0.8c6.2,2.7,7.2,9.4-0.3,14.6
				c-6.7,4.7-8.6,16,15.2,24.1c0.5,0.2,1.1,0.4,1.7,0.6c32.6,10.6,81.3,12.9,152.2,9.3c72.7-6.1,112.4-20.6,121.6-24.5
				c2.4-0.6,3.4-0.5,5.2,0.3C448.3,789.1,448.1,790,443.3,791.5z"/>
		</g>
		<g>
			<path class="st0" d="M478.6,771.9c-0.1,0.4-0.1,0.7-0.1,0.9c0.2,0.4,0.7,0.7,1.4,1c0.5,0.3,1,0.4,1.5,0.3c0.4,0,0.8-0.1,1.2-0.2
				c0.3-0.1,0.7-0.2,1.1-0.3c0.1,0,0.3-0.1,0.4-0.2c1.3-0.6,7.1-2.4,8.4-3.5c1.4-1.1,0.1-3.9-3.8-3.5c-0.4,0-0.9,0.2-1.3,0.3
				l-0.3,0.1c-0.1,0-0.2,0.1-0.3,0.2c-0.6,0.3-1.1,0.6-1.5,0.9C483.6,769.2,478.7,771.5,478.6,771.9z"/>
			<linearGradient id="SVGID_8_" gradientUnits="userSpaceOnUse" x1="500.1389" y1="760.9909" x2="821.4199" y2="760.9909">
				<stop  offset="0" style="stop-color:#FFFFFF"/>
				<stop  offset="1" style="stop-color:#FFFFFF;stop-opacity:0"/>
			</linearGradient>
			<path class="st11" d="M504.4,760.5c73.3-23.4,131.1-28.1,200.5-27.8c37.8,0.2,67.3,3.6,87.1,10.2c14.5,4.9,23.8,11.5,27.3,19.8
				c6.8,16.3-4.5,25-14.3,26.3c-2,0.3-4,0.2-5.8-0.1c-1-0.2-1.9-0.5-2.7-0.8c-6.2-2.7-7.2-9.4,0.3-14.6c6.7-4.7,8.6-16-15.2-24.1
				c-0.5-0.2-1.1-0.4-1.7-0.6c-32.6-10.6-81.3-12.9-152.2-9.3c-72.7,6.1-112.4,20.6-121.6,24.5c-2.4,0.6-3.4,0.5-5.2-0.3
				C499.4,762.9,499.6,762,504.4,760.5z"/>
		</g>
	</g>
	<g class="st12">
		<g>
			<path class="st0" d="M455.4,819.4c0.1-0.4,0.1-0.7,0.1-0.9c-0.2-0.4-0.7-0.7-1.4-1c-0.5-0.3-1-0.4-1.5-0.3
				c-0.4,0-0.8,0.1-1.2,0.2c-0.3,0.1-0.7,0.2-1.1,0.3c-0.1,0-0.3,0.1-0.4,0.2c-1.3,0.6-7.1,2.4-8.4,3.5c-1.4,1.1-0.1,3.9,3.8,3.5
				c0.4,0,0.9-0.2,1.3-0.3l0.3-0.1c0.1,0,0.2-0.1,0.3-0.2c0.6-0.3,1.1-0.6,1.5-0.9C450.3,822.1,455.2,819.8,455.4,819.4z"/>
			<linearGradient id="SVGID_9_" gradientUnits="userSpaceOnUse" x1="112.5166" y1="830.286" x2="433.7976" y2="830.286">
				<stop  offset="0" style="stop-color:#FFFFFF;stop-opacity:0"/>
				<stop  offset="1" style="stop-color:#FFFFFF"/>
			</linearGradient>
			<path class="st13" d="M429.5,830.7c-73.3,23.4-131.1,28.1-200.5,27.8c-37.8-0.2-67.3-3.6-87.1-10.2
				c-14.5-4.9-23.8-11.5-27.3-19.8c-6.8-16.3,4.5-25,14.3-26.3c2-0.3,4-0.2,5.8,0.1c1,0.2,1.9,0.5,2.7,0.8c6.2,2.7,7.2,9.4-0.3,14.6
				c-6.7,4.7-8.6,16,15.2,24.1c0.5,0.2,1.1,0.4,1.7,0.6c32.6,10.6,81.3,12.9,152.2,9.3c72.7-6.1,112.4-20.6,121.6-24.5
				c2.4-0.6,3.4-0.5,5.2,0.3C434.5,828.4,434.3,829.3,429.5,830.7z"/>
		</g>
		<g>
			<path class="st0" d="M464.8,811.1c-0.1,0.4-0.1,0.7-0.1,0.9c0.2,0.4,0.7,0.7,1.4,1c0.5,0.3,1,0.4,1.5,0.3c0.4,0,0.8-0.1,1.2-0.2
				c0.3-0.1,0.7-0.2,1.1-0.3c0.1,0,0.3-0.1,0.4-0.2c1.3-0.6,7.1-2.4,8.4-3.5c1.4-1.1,0.1-3.9-3.8-3.5c-0.4,0-0.9,0.2-1.3,0.3
				l-0.3,0.1c-0.1,0-0.2,0.1-0.3,0.2c-0.6,0.3-1.1,0.6-1.5,0.9C469.8,808.4,464.9,810.7,464.8,811.1z"/>
			<linearGradient id="SVGID_10_" gradientUnits="userSpaceOnUse" x1="486.324" y1="800.2513" x2="807.605" y2="800.2513">
				<stop  offset="0" style="stop-color:#FFFFFF"/>
				<stop  offset="1" style="stop-color:#FFFFFF;stop-opacity:0"/>
			</linearGradient>
			<path class="st14" d="M490.6,799.8c73.3-23.4,131.1-28.1,200.5-27.8c37.8,0.2,67.3,3.6,87.1,10.2c14.5,4.9,23.8,11.5,27.3,19.8
				c6.8,16.3-4.5,25-14.3,26.3c-2,0.3-4,0.2-5.8-0.1c-1-0.2-1.9-0.5-2.7-0.8c-6.2-2.7-7.2-9.4,0.3-14.6c6.7-4.7,8.6-16-15.2-24.1
				c-0.5-0.2-1.1-0.4-1.7-0.6c-32.6-10.6-81.3-12.9-152.2-9.3c-72.7,6.1-112.4,20.6-121.6,24.5c-2.4,0.6-3.4,0.5-5.2-0.3
				C485.6,802.1,485.8,801.3,490.6,799.8z"/>
		</g>
	</g>
	<g class="st12">
		<g>
			<path class="st0" d="M492.7,735.5c0.1-0.4,0.1-0.7,0.1-0.9c-0.2-0.4-0.7-0.7-1.4-1c-0.5-0.3-1-0.4-1.5-0.3s-0.8,0.1-1.2,0.2
				c-0.3,0.1-0.7,0.2-1.1,0.3c-0.1,0-0.3,0.1-0.4,0.2c-1.3,0.6-7.1,2.4-8.4,3.5c-1.4,1.1-0.1,3.9,3.8,3.5c0.4,0,0.9-0.2,1.3-0.3
				l0.3-0.1c0.1,0,0.2-0.1,0.3-0.2c0.6-0.3,1.1-0.6,1.5-0.9C487.6,738.2,492.5,735.9,492.7,735.5z"/>
			<linearGradient id="SVGID_11_" gradientUnits="userSpaceOnUse" x1="149.8212" y1="746.3699" x2="471.1022" y2="746.3699">
				<stop  offset="0" style="stop-color:#FFFFFF;stop-opacity:0"/>
				<stop  offset="1" style="stop-color:#FFFFFF"/>
			</linearGradient>
			<path class="st15" d="M466.8,746.8c-73.3,23.4-131.1,28.1-200.5,27.8c-37.8-0.2-67.3-3.6-87.1-10.2
				c-14.5-4.9-23.8-11.5-27.3-19.8c-6.8-16.3,4.5-25,14.3-26.3c2-0.3,4-0.2,5.8,0.1c1,0.2,1.9,0.5,2.7,0.8c6.2,2.7,7.2,9.4-0.3,14.6
				c-6.7,4.7-8.6,16,15.2,24.1c0.5,0.2,1.1,0.4,1.7,0.6c32.6,10.6,81.3,12.9,152.2,9.3c72.7-6.1,112.4-20.6,121.6-24.5
				c2.4-0.6,3.4-0.5,5.2,0.3C471.8,744.5,471.6,745.3,466.8,746.8z"/>
		</g>
		<g>
			<path class="st0" d="M502.9,727.8c-0.1,0.4-0.1,0.7-0.1,0.9c0.2,0.4,0.7,0.7,1.4,1c0.5,0.3,1,0.4,1.5,0.3c0.4,0,0.8-0.1,1.2-0.2
				c0.3-0.1,0.7-0.2,1.1-0.3c0.1,0,0.3-0.1,0.4-0.2c1.3-0.6,7.1-2.4,8.4-3.5c1.4-1.1,0.1-3.9-3.8-3.5c-0.4,0-0.9,0.2-1.3,0.3
				l-0.3,0.1c-0.1,0-0.2,0.1-0.3,0.2c-0.6,0.3-1.1,0.6-1.5,0.9C507.9,725.1,503,727.3,502.9,727.8z"/>
			<linearGradient id="SVGID_12_" gradientUnits="userSpaceOnUse" x1="524.4213" y1="716.8681" x2="845.7023" y2="716.8681">
				<stop  offset="0" style="stop-color:#FFFFFF"/>
				<stop  offset="1" style="stop-color:#FFFFFF;stop-opacity:0"/>
			</linearGradient>
			<path class="st16" d="M528.7,716.4c73.3-23.4,131.1-28.1,200.5-27.8c37.8,0.2,67.3,3.6,87.1,10.2c14.5,4.9,23.8,11.5,27.3,19.8
				c6.8,16.3-4.5,25-14.3,26.3c-2,0.3-4,0.2-5.8-0.1c-1-0.2-1.9-0.5-2.7-0.8c-6.2-2.7-7.2-9.4,0.3-14.6c6.7-4.7,8.6-16-15.2-24.1
				c-0.5-0.2-1.1-0.4-1.7-0.6c-32.6-10.6-81.3-12.9-152.2-9.3c-72.7,6.1-112.4,20.6-121.6,24.5c-2.4,0.6-3.4,0.5-5.2-0.3
				C523.7,718.8,523.9,717.9,528.7,716.4z"/>
		</g>
	</g>
	<g class="st17">
		<g>
			<path class="st0" d="M421.6,904.9c0.1-0.4,0.1-0.7,0.1-0.9c-0.2-0.4-0.7-0.7-1.4-1c-0.5-0.3-1-0.4-1.5-0.3
				c-0.4,0-0.8,0.1-1.2,0.2c-0.3,0.1-0.7,0.2-1.1,0.3c-0.1,0-0.3,0.1-0.4,0.2c-1.3,0.6-7.1,2.4-8.4,3.5c-1.4,1.1-0.1,3.9,3.8,3.5
				c0.4,0,0.9-0.2,1.3-0.3l0.3-0.1c0.1,0,0.2-0.1,0.3-0.2c0.6-0.3,1.1-0.6,1.5-0.9C416.6,907.6,421.5,905.3,421.6,904.9z"/>
			<linearGradient id="SVGID_13_" gradientUnits="userSpaceOnUse" x1="78.7883" y1="915.8076" x2="400.0693" y2="915.8076">
				<stop  offset="0" style="stop-color:#FFFFFF;stop-opacity:0"/>
				<stop  offset="1" style="stop-color:#FFFFFF"/>
			</linearGradient>
			<path class="st18" d="M395.8,916.3c-73.3,23.4-131.1,28.1-200.5,27.8c-37.8-0.2-67.3-3.6-87.1-10.2C93.6,929,84.3,922.4,80.9,914
				c-6.8-16.3,4.5-25,14.3-26.3c2-0.3,4-0.2,5.8,0.1c1,0.2,1.9,0.5,2.7,0.8c6.2,2.7,7.2,9.4-0.3,14.6c-6.7,4.7-8.6,16,15.2,24.1
				c0.5,0.2,1.1,0.4,1.7,0.6c32.6,10.6,81.3,12.9,152.2,9.3c72.7-6.1,112.4-20.6,121.6-24.5c2.4-0.6,3.4-0.5,5.2,0.3
				C400.8,913.9,400.6,914.8,395.8,916.3z"/>
		</g>
		<g>
			<path class="st0" d="M431,896.7c-0.1,0.4-0.1,0.7-0.1,0.9c0.2,0.4,0.7,0.7,1.4,1c0.5,0.3,1,0.4,1.5,0.3c0.4,0,0.8-0.1,1.2-0.2
				c0.3-0.1,0.7-0.2,1.1-0.3c0.1,0,0.3-0.1,0.4-0.2c1.3-0.6,7.1-2.4,8.4-3.5c1.4-1.1,0.1-3.9-3.8-3.5c-0.4,0-0.9,0.2-1.3,0.3
				l-0.3,0.1c-0.1,0-0.2,0.1-0.3,0.2c-0.6,0.3-1.1,0.6-1.5,0.9C436.1,894,431.2,896.2,431,896.7z"/>
			<linearGradient id="SVGID_14_" gradientUnits="userSpaceOnUse" x1="452.5957" y1="885.7728" x2="773.8767" y2="885.7728">
				<stop  offset="0" style="stop-color:#FFFFFF"/>
				<stop  offset="1" style="stop-color:#FFFFFF;stop-opacity:0"/>
			</linearGradient>
			<path class="st19" d="M456.9,885.3c73.3-23.4,131.1-28.1,200.5-27.8c37.8,0.2,67.3,3.6,87.1,10.2c14.5,4.9,23.8,11.5,27.3,19.8
				c6.8,16.3-4.5,25-14.3,26.3c-2,0.3-4,0.2-5.8-0.1c-1-0.2-1.9-0.5-2.7-0.8c-6.2-2.7-7.2-9.4,0.3-14.6c6.7-4.7,8.6-16-15.2-24.1
				c-0.5-0.2-1.1-0.4-1.7-0.6c-32.6-10.6-81.3-12.9-152.2-9.3c-72.7,6.1-112.4,20.6-121.6,24.5c-2.4,0.6-3.4,0.5-5.2-0.3
				C451.9,887.7,452.1,886.8,456.9,885.3z"/>
		</g>
	</g>
	<g>
		<path class="st0" d="M407.8,939.8c0.1-0.4,0.1-0.7,0.1-0.9c-0.2-0.4-0.7-0.7-1.4-1c-0.5-0.3-1-0.4-1.5-0.3c-0.4,0-0.8,0.1-1.2,0.2
			c-0.3,0.1-0.7,0.2-1.1,0.3c-0.1,0-0.3,0.1-0.4,0.2c-1.3,0.6-7.1,2.4-8.4,3.5c-1.4,1.1-0.1,3.9,3.8,3.5c0.4,0,0.9-0.2,1.3-0.3
			l0.3-0.1c0.1,0,0.2-0.1,0.3-0.2c0.6-0.3,1.1-0.6,1.5-0.9C402.8,942.5,407.7,940.2,407.8,939.8z"/>
		<linearGradient id="SVGID_15_" gradientUnits="userSpaceOnUse" x1="64.9734" y1="950.6811" x2="386.2545" y2="950.6811">
			<stop  offset="0" style="stop-color:#FFFFFF;stop-opacity:0"/>
			<stop  offset="1" style="stop-color:#FFFFFF"/>
		</linearGradient>
		<path class="st20" d="M382,951.1c-73.3,23.4-131.1,28.1-200.5,27.8c-37.8-0.2-67.3-3.6-87.1-10.2c-14.5-4.9-23.8-11.5-27.3-19.8
			c-6.8-16.3,4.5-25,14.3-26.3c2-0.3,4-0.2,5.8,0.1c1,0.2,1.9,0.5,2.7,0.8c6.2,2.7,7.2,9.4-0.3,14.6c-6.7,4.7-8.6,16,15.2,24.1
			c0.5,0.2,1.1,0.4,1.7,0.6c32.6,10.6,81.3,12.9,152.2,9.3c72.7-6.1,112.4-20.6,121.6-24.5c2.4-0.6,3.4-0.5,5.2,0.3
			C386.9,948.8,386.8,949.6,382,951.1z"/>
	</g>
	<g>
		<path class="st0" d="M417.2,933.9c-0.1,0.4-0.1,0.7-0.1,0.9c0.2,0.4,0.7,0.7,1.4,1c0.5,0.3,1,0.4,1.5,0.3c0.4,0,0.8-0.1,1.2-0.2
			c0.3-0.1,0.7-0.2,1.1-0.3c0.1,0,0.3-0.1,0.4-0.2c1.3-0.6,7.1-2.4,8.4-3.5c1.4-1.1,0.1-3.9-3.8-3.5c-0.4,0-0.9,0.2-1.3,0.3
			l-0.3,0.1c-0.1,0-0.2,0.1-0.3,0.2c-0.6,0.3-1.1,0.6-1.5,0.9C422.3,931.2,417.4,933.5,417.2,933.9z"/>
		<linearGradient id="SVGID_16_" gradientUnits="userSpaceOnUse" x1="438.7809" y1="922.9999" x2="760.0619" y2="922.9999">
			<stop  offset="0" style="stop-color:#FFFFFF"/>
			<stop  offset="1" style="stop-color:#FFFFFF;stop-opacity:0"/>
		</linearGradient>
		<path class="st21" d="M443.1,922.6c73.3-23.4,131.1-28.1,200.5-27.8c37.8,0.2,67.3,3.6,87.1,10.2c14.5,4.9,23.8,11.5,27.3,19.8
			c6.8,16.3-4.5,25-14.3,26.3c-2,0.3-4,0.2-5.8-0.1c-1-0.2-1.9-0.5-2.7-0.8c-6.2-2.7-7.2-9.4,0.3-14.6c6.7-4.7,8.6-16-15.2-24.1
			c-0.5-0.2-1.1-0.4-1.7-0.6c-32.6-10.6-81.3-12.9-152.2-9.3c-72.7,6.1-112.4,20.6-121.6,24.5c-2.4,0.6-3.4,0.5-5.2-0.3
			C438.1,924.9,438.2,924,443.1,922.6z"/>
	</g>
	<g class="st9">
		<g>
			<path class="st0" d="M445.1,860.3c0.1-0.4,0.1-0.7,0.1-0.9c-0.2-0.4-0.7-0.7-1.4-1c-0.5-0.3-1-0.4-1.5-0.3
				c-0.4,0-0.8,0.1-1.2,0.2c-0.3,0.1-0.7,0.2-1.1,0.3c-0.1,0-0.3,0.1-0.4,0.2c-1.3,0.6-7.1,2.4-8.4,3.5c-1.4,1.1-0.1,3.9,3.8,3.5
				c0.4,0,0.9-0.2,1.3-0.3l0.3-0.1c0.1,0,0.2-0.1,0.3-0.2c0.6-0.3,1.1-0.6,1.5-0.9C440.1,863,445,860.7,445.1,860.3z"/>
			<linearGradient id="SVGID_17_" gradientUnits="userSpaceOnUse" x1="102.278" y1="871.1518" x2="423.559" y2="871.1518">
				<stop  offset="0" style="stop-color:#FFFFFF;stop-opacity:0"/>
				<stop  offset="1" style="stop-color:#FFFFFF"/>
			</linearGradient>
			<path class="st22" d="M419.3,871.6C346,895,288.2,899.7,218.8,899.4c-37.8-0.2-67.3-3.6-87.1-10.2c-14.5-4.9-23.8-11.5-27.3-19.8
				c-6.8-16.3,4.5-25,14.3-26.3c2-0.3,4-0.2,5.8,0.1c1,0.2,1.9,0.5,2.7,0.8c6.2,2.7,7.2,9.4-0.3,14.6c-6.7,4.7-8.6,16,15.2,24.1
				c0.5,0.2,1.1,0.4,1.7,0.6c32.6,10.6,81.3,12.9,152.2,9.3c72.7-6.1,112.4-20.6,121.6-24.5c2.4-0.6,3.4-0.5,5.2,0.3
				C424.2,869.3,424.1,870.1,419.3,871.6z"/>
		</g>
		<g>
			<path class="st0" d="M455.3,852.5c-0.1,0.4-0.1,0.7-0.1,0.9c0.2,0.4,0.7,0.7,1.4,1c0.5,0.3,1,0.4,1.5,0.3c0.4,0,0.8-0.1,1.2-0.2
				c0.3-0.1,0.7-0.2,1.1-0.3c0.1,0,0.3-0.1,0.4-0.2c1.3-0.6,7.1-2.4,8.4-3.5c1.4-1.1,0.1-3.9-3.8-3.5c-0.4,0-0.9,0.2-1.3,0.3
				l-0.3,0.1c-0.1,0-0.2,0.1-0.3,0.2c-0.6,0.3-1.1,0.6-1.5,0.9C460.4,849.8,455.4,852.1,455.3,852.5z"/>
			<linearGradient id="SVGID_18_" gradientUnits="userSpaceOnUse" x1="476.8781" y1="841.65" x2="798.1591" y2="841.65">
				<stop  offset="0" style="stop-color:#FFFFFF"/>
				<stop  offset="1" style="stop-color:#FFFFFF;stop-opacity:0"/>
			</linearGradient>
			<path class="st23" d="M481.2,841.2c73.3-23.4,131.1-28.1,200.5-27.8c37.8,0.2,67.3,3.6,87.1,10.2c14.5,4.9,23.8,11.5,27.3,19.8
				c6.8,16.3-4.5,25-14.3,26.3c-2,0.3-4,0.2-5.8-0.1c-1-0.2-1.9-0.5-2.7-0.8c-6.2-2.7-7.2-9.4,0.3-14.6c6.7-4.7,8.6-16-15.2-24.1
				c-0.5-0.2-1.1-0.4-1.7-0.6c-32.6-10.6-81.3-12.9-152.2-9.3c-72.7,6.1-112.4,20.6-121.6,24.5c-2.4,0.6-3.4,0.5-5.2-0.3
				C476.2,843.5,476.3,842.7,481.2,841.2z"/>
		</g>
	</g>
	<g class="st24">
		<g>
			<path class="st0" d="M557.1,604.6c0.1-0.4,0.1-0.7,0.1-0.9c-0.2-0.4-0.7-0.7-1.4-1c-0.5-0.3-1-0.4-1.5-0.3s-0.8,0.1-1.2,0.2
				c-0.3,0.1-0.7,0.2-1.1,0.3c-0.1,0-0.3,0.1-0.4,0.2c-1.3,0.6-7.1,2.4-8.4,3.5c-1.4,1.1-0.1,3.9,3.8,3.5c0.4,0,0.9-0.2,1.3-0.3
				l0.3-0.1c0.1,0,0.2-0.1,0.3-0.2c0.6-0.3,1.1-0.6,1.5-0.9C552,607.3,556.9,605,557.1,604.6z"/>
			<linearGradient id="SVGID_19_" gradientUnits="userSpaceOnUse" x1="214.2156" y1="615.4807" x2="535.4966" y2="615.4807">
				<stop  offset="0" style="stop-color:#FFFFFF;stop-opacity:0"/>
				<stop  offset="1" style="stop-color:#FFFFFF"/>
			</linearGradient>
			<path class="st25" d="M531.2,615.9c-73.3,23.4-131.1,28.1-200.5,27.8c-37.8-0.2-67.3-3.6-87.1-10.2
				c-14.5-4.9-23.8-11.5-27.3-19.8c-6.8-16.3,4.5-25,14.3-26.3c2-0.3,4-0.2,5.8,0.1c1,0.2,1.9,0.5,2.7,0.8c6.2,2.7,7.2,9.4-0.3,14.6
				c-6.7,4.7-8.6,16,15.2,24.1c0.5,0.2,1.1,0.4,1.7,0.6c32.6,10.6,81.3,12.9,152.2,9.3c72.7-6.1,112.4-20.6,121.6-24.5
				c2.4-0.6,3.4-0.5,5.2,0.3C536.2,613.6,536,614.4,531.2,615.9z"/>
		</g>
		<g>
			<path class="st0" d="M567.3,596.9c-0.1,0.4-0.1,0.7-0.1,0.9c0.2,0.4,0.7,0.7,1.4,1c0.5,0.3,1,0.4,1.5,0.3c0.4,0,0.8-0.1,1.2-0.2
				c0.3-0.1,0.7-0.2,1.1-0.3c0.1,0,0.3-0.1,0.4-0.2c1.3-0.6,7.1-2.4,8.4-3.5c1.4-1.1,0.1-3.9-3.8-3.5c-0.4,0-0.9,0.2-1.3,0.3
				l-0.3,0.1c-0.1,0-0.2,0.1-0.3,0.2c-0.6,0.3-1.1,0.6-1.5,0.9C572.3,594.2,567.4,596.5,567.3,596.9z"/>
			<linearGradient id="SVGID_20_" gradientUnits="userSpaceOnUse" x1="588.8157" y1="585.9789" x2="910.0967" y2="585.9789">
				<stop  offset="0" style="stop-color:#FFFFFF"/>
				<stop  offset="1" style="stop-color:#FFFFFF;stop-opacity:0"/>
			</linearGradient>
			<path class="st26" d="M593.1,585.5c73.3-23.4,131.1-28.1,200.5-27.8c37.8,0.2,67.3,3.6,87.1,10.2c14.5,4.9,23.8,11.5,27.3,19.8
				c6.8,16.3-4.5,25-14.3,26.3c-2,0.3-4,0.2-5.8-0.1c-1-0.2-1.9-0.5-2.7-0.8c-6.2-2.7-7.2-9.4,0.3-14.6c6.7-4.7,8.6-16-15.2-24.1
				c-0.5-0.2-1.1-0.4-1.7-0.6c-32.6-10.6-81.3-12.9-152.2-9.3c-72.7,6.1-112.4,20.6-121.6,24.5c-2.4,0.6-3.4,0.5-5.2-0.3
				C588.1,587.9,588.3,587,593.1,585.5z"/>
		</g>
	</g>
	<g>
		<path class="st0" d="M596.5,552c-0.1,0.4-0.1,0.7-0.1,0.9c0.2,0.4,0.7,0.7,1.4,1c0.5,0.3,1,0.4,1.5,0.3c0.4,0,0.8-0.1,1.2-0.2
			c0.3-0.1,0.7-0.2,1.1-0.3c0.1,0,0.3-0.1,0.4-0.2c1.3-0.6,7.1-2.4,8.4-3.5c1.4-1.1,0.1-3.9-3.8-3.5c-0.4,0-0.9,0.2-1.3,0.3L605,547
			c-0.1,0-0.2,0.1-0.3,0.2c-0.6,0.3-1.1,0.6-1.5,0.9C601.5,549.3,596.6,551.5,596.5,552z"/>
		<linearGradient id="SVGID_21_" gradientUnits="userSpaceOnUse" x1="618.0466" y1="541.0702" x2="939.3276" y2="541.0702">
			<stop  offset="0" style="stop-color:#FFFFFF"/>
			<stop  offset="1" style="stop-color:#FFFFFF;stop-opacity:0"/>
		</linearGradient>
		<path class="st27" d="M622.3,540.6c73.3-23.4,131.1-28.1,200.5-27.8c37.8,0.2,67.3,3.6,87.1,10.2c14.5,4.9,23.8,11.5,27.3,19.8
			c6.8,16.3-4.5,25-14.3,26.3c-2,0.3-4,0.2-5.8-0.1c-1-0.2-1.9-0.5-2.7-0.8c-6.2-2.7-7.2-9.4,0.3-14.6c6.7-4.7,8.6-16-15.2-24.1
			c-0.5-0.2-1.1-0.4-1.7-0.6c-32.6-10.6-81.3-12.9-152.2-9.3c-72.7,6.1-112.4,20.6-121.6,24.5c-2.4,0.6-3.4,0.5-5.2-0.3
			C617.4,543,617.5,542.1,622.3,540.6z"/>
	</g>
	<g>
		<path class="st0" d="M619.9,509.6c-0.1,0.4-0.1,0.7-0.1,0.9c0.2,0.4,0.7,0.7,1.4,1c0.5,0.3,1,0.4,1.5,0.3c0.4,0,0.8-0.1,1.2-0.2
			c0.3-0.1,0.7-0.2,1.1-0.3c0.1,0,0.3-0.1,0.4-0.2c1.3-0.6,7.1-2.4,8.4-3.5c1.4-1.1,0.1-3.9-3.8-3.5c-0.4,0-0.9,0.2-1.3,0.3
			l-0.3,0.1c-0.1,0-0.2,0.1-0.3,0.2c-0.6,0.3-1.1,0.6-1.5,0.9C625,506.9,620,509.2,619.9,509.6z"/>
		<linearGradient id="SVGID_22_" gradientUnits="userSpaceOnUse" x1="641.4729" y1="498.7413" x2="962.7538" y2="498.7413">
			<stop  offset="0" style="stop-color:#FFFFFF"/>
			<stop  offset="1" style="stop-color:#FFFFFF;stop-opacity:0"/>
		</linearGradient>
		<path class="st28" d="M645.8,498.3c73.3-23.4,131.1-28.1,200.5-27.8c37.8,0.2,67.3,3.6,87.1,10.2c14.5,4.9,23.8,11.5,27.3,19.8
			c6.8,16.3-4.5,25-14.3,26.3c-2,0.3-4,0.2-5.8-0.1c-1-0.2-1.9-0.5-2.7-0.8c-6.2-2.7-7.2-9.4,0.3-14.6c6.7-4.7,8.6-16-15.2-24.1
			c-0.5-0.2-1.1-0.4-1.7-0.6c-32.6-10.6-81.3-12.9-152.2-9.3c-72.7,6.1-112.4,20.6-121.6,24.5c-2.4,0.6-3.4,0.5-5.2-0.3
			C640.8,500.6,640.9,499.8,645.8,498.3z"/>
	</g>
</g>
<g>
	<g>
		<path class="st0" d="M359.9,323.7c-0.1,0.4-0.1,0.7,0,0.9c0.2,0.3,0.7,0.6,1.5,0.9c0.6,0.2,1.1,0.3,1.5,0.2
			c0.4-0.1,0.8-0.1,1.2-0.2c0.3-0.1,0.6-0.2,1.1-0.4c0.1-0.1,0.3-0.1,0.4-0.2c1.3-0.7,7-2.7,8.2-3.8c1.4-1.2-0.1-3.7-4-3.2
			c-0.4,0.1-0.9,0.2-1.2,0.4l-0.3,0.1c-0.1,0.1-0.2,0.1-0.3,0.2c-0.6,0.3-1,0.7-1.5,1C364.8,320.8,360.1,323.3,359.9,323.7z"/>
		<linearGradient id="SVGID_23_" gradientUnits="userSpaceOnUse" x1="380.971" y1="298.2697" x2="702.3122" y2="298.2697">
			<stop  offset="0" style="stop-color:#FFFFFF"/>
			<stop  offset="1" style="stop-color:#FFFFFF;stop-opacity:0"/>
		</linearGradient>
		<path class="st29" d="M385.1,311.4c71.9-26.5,129.4-34.1,198.7-37.4c37.8-1.8,67.4-0.1,87.5,5.2c14.8,3.9,24.4,9.8,28.3,17.7
			c7.7,15.4-3.1,24.3-12.9,26.1c-2,0.4-4,0.4-5.8,0.2c-1-0.1-1.9-0.4-2.7-0.7c-6.3-2.3-7.7-8.7-0.5-14.1c6.4-4.8,7.8-15.9-16.5-22.4
			c-0.6-0.2-1.1-0.3-1.7-0.4c-33.1-8.5-81.9-8.1-152.4-0.9c-72.3,9.8-111.1,25.8-120.1,30.1c-2.3,0.7-3.4,0.7-5.2-0.1
			C380.3,313.9,380.4,313.1,385.1,311.4z"/>
	</g>
	<g>
		<path class="st0" d="M381,281.6c-0.1,0.4-0.1,0.7,0,0.9c0.2,0.3,0.7,0.6,1.5,0.9c0.6,0.2,1.1,0.3,1.5,0.2c0.4-0.1,0.8-0.1,1.2-0.2
			c0.3-0.1,0.6-0.2,1.1-0.4c0.1-0.1,0.3-0.1,0.4-0.2c1.3-0.7,7-2.7,8.2-3.8c1.4-1.2-0.1-3.7-4-3.2c-0.4,0.1-0.9,0.2-1.2,0.4
			l-0.3,0.1c-0.1,0.1-0.2,0.1-0.3,0.2c-0.6,0.3-1,0.7-1.5,1C385.9,278.7,381.1,281.2,381,281.6z"/>
		<linearGradient id="SVGID_24_" gradientUnits="userSpaceOnUse" x1="402.0397" y1="256.2122" x2="723.3809" y2="256.2122">
			<stop  offset="0" style="stop-color:#FFFFFF"/>
			<stop  offset="1" style="stop-color:#FFFFFF;stop-opacity:0"/>
		</linearGradient>
		<path class="st30" d="M406.2,269.3c71.9-26.5,129.4-34.1,198.7-37.4c37.8-1.8,67.4-0.1,87.5,5.2c14.8,3.9,24.4,9.8,28.3,17.7
			c7.7,15.4-3.1,24.3-12.9,26.1c-2,0.4-4,0.4-5.8,0.2c-1-0.1-1.9-0.4-2.7-0.7c-6.3-2.3-7.7-8.7-0.5-14.1c6.4-4.8,7.8-15.9-16.5-22.4
			c-0.6-0.2-1.1-0.3-1.7-0.4c-33.1-8.5-81.9-8.1-152.4-0.9c-72.3,9.8-111.1,25.8-120.1,30.1c-2.3,0.7-3.4,0.7-5.2-0.1
			C401.4,271.8,401.5,271,406.2,269.3z"/>
	</g>
	<g>
		<path class="st0" d="M410.2,237.1c-0.1,0.4-0.1,0.7,0,0.9c0.2,0.3,0.7,0.6,1.5,0.9c0.6,0.2,1.1,0.3,1.5,0.2
			c0.4-0.1,0.8-0.1,1.2-0.2c0.3-0.1,0.6-0.2,1.1-0.4c0.1-0.1,0.3-0.1,0.4-0.2c1.3-0.7,7-2.7,8.2-3.8c1.4-1.2-0.1-3.7-4-3.2
			c-0.4,0.1-0.9,0.2-1.2,0.4l-0.3,0.1c-0.1,0.1-0.2,0.1-0.3,0.2c-0.6,0.3-1,0.7-1.5,1C415.1,234.2,410.3,236.7,410.2,237.1z"/>
		<linearGradient id="SVGID_25_" gradientUnits="userSpaceOnUse" x1="431.2172" y1="211.6748" x2="752.5584" y2="211.6748">
			<stop  offset="0" style="stop-color:#FFFFFF"/>
			<stop  offset="1" style="stop-color:#FFFFFF;stop-opacity:0"/>
		</linearGradient>
		<path class="st31" d="M435.4,224.8c71.9-26.5,129.4-34.1,198.7-37.4c37.8-1.8,67.4-0.1,87.5,5.2c14.8,3.9,24.4,9.8,28.3,17.7
			c7.7,15.4-3.1,24.3-12.9,26.1c-2,0.4-4,0.4-5.8,0.2c-1-0.1-1.9-0.4-2.7-0.7c-6.3-2.3-7.7-8.7-0.5-14.1c6.4-4.8,7.8-15.9-16.5-22.4
			c-0.6-0.2-1.1-0.3-1.7-0.4c-33.1-8.5-81.9-8.1-152.4-0.9c-72.3,9.8-111.1,25.8-120.1,30.1c-2.3,0.7-3.4,0.7-5.2-0.1
			C430.5,227.3,430.6,226.5,435.4,224.8z"/>
	</g>
	<g>
		<path class="st0" d="M431.3,195c-0.1,0.4-0.1,0.7,0,0.9c0.2,0.3,0.7,0.6,1.5,0.9c0.6,0.2,1.1,0.3,1.5,0.2c0.4-0.1,0.8-0.1,1.2-0.2
			c0.3-0.1,0.6-0.2,1.1-0.4c0.1-0.1,0.3-0.1,0.4-0.2c1.3-0.7,7-2.7,8.2-3.8c1.4-1.2-0.1-3.7-4-3.2c-0.4,0.1-0.9,0.2-1.2,0.4
			l-0.3,0.1c-0.1,0.1-0.2,0.1-0.3,0.2c-0.6,0.3-1,0.7-1.5,1C436.1,192.2,431.4,194.6,431.3,195z"/>
		<linearGradient id="SVGID_26_" gradientUnits="userSpaceOnUse" x1="452.2859" y1="169.6173" x2="773.6271" y2="169.6173">
			<stop  offset="0" style="stop-color:#FFFFFF"/>
			<stop  offset="1" style="stop-color:#FFFFFF;stop-opacity:0"/>
		</linearGradient>
		<path class="st32" d="M456.4,182.7c71.9-26.5,129.4-34.1,198.7-37.4c37.8-1.8,67.4-0.1,87.5,5.2c14.8,3.9,24.4,9.8,28.3,17.7
			c7.7,15.4-3.1,24.3-12.9,26.1c-2,0.4-4,0.4-5.8,0.2c-1-0.1-1.9-0.4-2.7-0.7c-6.3-2.3-7.7-8.7-0.5-14.1c6.4-4.8,7.8-15.9-16.5-22.4
			c-0.6-0.2-1.1-0.3-1.7-0.4c-33.1-8.5-81.9-8.1-152.4-0.9c-72.3,9.8-111.1,25.8-120.1,30.1c-2.3,0.7-3.4,0.7-5.2-0.1
			C451.6,185.2,451.7,184.4,456.4,182.7z"/>
	</g>
	<g>
		<path class="st0" d="M452.3,150.7c-0.1,0.4-0.1,0.7,0,0.9c0.2,0.3,0.7,0.6,1.5,0.9c0.6,0.2,1.1,0.3,1.5,0.2
			c0.4-0.1,0.8-0.1,1.2-0.2c0.3-0.1,0.6-0.2,1.1-0.4c0.1-0.1,0.3-0.1,0.4-0.2c1.3-0.7,7-2.7,8.2-3.8c1.4-1.2-0.1-3.7-4-3.2
			c-0.4,0.1-0.9,0.2-1.2,0.4l-0.3,0.1c-0.1,0.1-0.2,0.1-0.3,0.2c-0.6,0.3-1,0.7-1.5,1C457.1,147.8,452.4,150.3,452.3,150.7z"/>
		<linearGradient id="SVGID_27_" gradientUnits="userSpaceOnUse" x1="473.2903" y1="125.3127" x2="794.6315" y2="125.3127">
			<stop  offset="0" style="stop-color:#FFFFFF"/>
			<stop  offset="1" style="stop-color:#FFFFFF;stop-opacity:0"/>
		</linearGradient>
		<path class="st33" d="M477.5,138.4c71.9-26.5,129.4-34.1,198.7-37.4c37.8-1.8,67.4-0.1,87.5,5.2c14.8,3.9,24.4,9.8,28.3,17.7
			c7.7,15.4-3.1,24.3-12.9,26.1c-2,0.4-4,0.4-5.8,0.2c-1-0.1-1.9-0.4-2.7-0.7c-6.3-2.3-7.7-8.7-0.5-14.1c6.4-4.8,7.8-15.9-16.5-22.4
			c-0.6-0.2-1.1-0.3-1.7-0.4c-33.1-8.5-81.9-8.1-152.4-0.9c-72.3,9.8-111.1,25.8-120.1,30.1c-2.3,0.7-3.4,0.7-5.2-0.1
			C472.6,140.9,472.7,140.1,477.5,138.4z"/>
	</g>
	<g>
		<linearGradient id="SVGID_28_" gradientUnits="userSpaceOnUse" x1="473.2495" y1="106.7628" x2="487.5979" y2="106.7628">
			<stop  offset="0" style="stop-color:#FFFFFF"/>
			<stop  offset="1" style="stop-color:#FFFFFF;stop-opacity:0"/>
		</linearGradient>
		<path class="st34" d="M473.3,108.7c-0.1,0.4-0.1,0.7,0,0.9c0.2,0.3,0.7,0.6,1.5,0.9c0.6,0.2,1.1,0.3,1.5,0.2
			c0.4-0.1,0.8-0.1,1.2-0.2c0.3-0.1,0.6-0.2,1.1-0.4c0.1-0.1,0.3-0.1,0.4-0.2c1.3-0.7,7-2.7,8.2-3.8c1.4-1.2-0.1-3.7-4-3.2
			c-0.4,0.1-0.9,0.2-1.2,0.4l-0.3,0.1c-0.1,0.1-0.2,0.1-0.3,0.2c-0.6,0.3-1,0.7-1.5,1C478.2,105.8,473.4,108.3,473.3,108.7z"/>
		<linearGradient id="SVGID_29_" gradientUnits="userSpaceOnUse" x1="494.3589" y1="83.2553" x2="815.7001" y2="83.2553">
			<stop  offset="0" style="stop-color:#FFFFFF"/>
			<stop  offset="1" style="stop-color:#FFFFFF;stop-opacity:0"/>
		</linearGradient>
		<path class="st35" d="M498.5,96.4c71.9-26.5,129.4-34.1,198.7-37.4c37.8-1.8,67.4-0.1,87.5,5.2c14.8,3.9,24.4,9.8,28.3,17.7
			c7.7,15.4-3.1,24.3-12.9,26.1c-2,0.4-4,0.4-5.8,0.2c-1-0.1-1.9-0.4-2.7-0.7c-6.3-2.3-7.7-8.7-0.5-14.1c6.4-4.8,7.8-15.9-16.5-22.4
			c-0.6-0.2-1.1-0.3-1.7-0.4c-33.1-8.5-81.9-8.1-152.4-0.9c-72.3,9.8-111.1,25.8-120.1,30.1c-2.3,0.7-3.4,0.7-5.2-0.1
			C493.7,98.9,493.8,98,498.5,96.4z"/>
	</g>
	<g>
		<linearGradient id="SVGID_30_" gradientUnits="userSpaceOnUse" x1="451.5647" y1="116.6619" x2="465.913" y2="116.6619">
			<stop  offset="0" style="stop-color:#FFFFFF;stop-opacity:0"/>
			<stop  offset="1" style="stop-color:#FFFFFF"/>
		</linearGradient>
		<path class="st36" d="M465.8,114.8c0.1-0.4,0.1-0.7,0-0.9c-0.2-0.3-0.7-0.6-1.5-0.9c-0.6-0.2-1.1-0.3-1.5-0.2
			c-0.4,0.1-0.8,0.1-1.2,0.2c-0.3,0.1-0.6,0.2-1.1,0.4c-0.1,0.1-0.3,0.1-0.4,0.2c-1.3,0.7-7,2.7-8.2,3.8c-1.4,1.2,0.1,3.7,4,3.2
			c0.4-0.1,0.9-0.2,1.2-0.4l0.3-0.1c0.1-0.1,0.2-0.1,0.3-0.2c0.6-0.3,1-0.7,1.5-1C460.9,117.6,465.7,115.2,465.8,114.8z"/>
		<linearGradient id="SVGID_31_" gradientUnits="userSpaceOnUse" x1="123.4624" y1="140.1694" x2="444.8036" y2="140.1694">
			<stop  offset="0" style="stop-color:#FFFFFF;stop-opacity:0"/>
			<stop  offset="1" style="stop-color:#FFFFFF"/>
		</linearGradient>
		<path class="st37" d="M440.6,127.1c-71.9,26.5-129.4,34.1-198.7,37.4c-37.8,1.8-67.4,0.1-87.5-5.2c-14.8-3.9-24.4-9.8-28.3-17.7
			c-7.7-15.4,3.1-24.3,12.9-26.1c2-0.4,4-0.4,5.8-0.2c1,0.1,1.9,0.4,2.7,0.7c6.3,2.3,7.7,8.7,0.5,14.1c-6.4,4.8-7.8,15.9,16.5,22.4
			c0.6,0.2,1.1,0.3,1.7,0.4c33.1,8.5,81.9,8.1,152.4,0.9c72.3-9.8,111.1-25.8,120.1-30.1c2.3-0.7,3.4-0.7,5.2,0.1
			C445.5,124.5,445.4,125.4,440.6,127.1z"/>
	</g>
	<g>
		<linearGradient id="SVGID_32_" gradientUnits="userSpaceOnUse" x1="477.0153" y1="66.7512" x2="491.3637" y2="66.7512">
			<stop  offset="0" style="stop-color:#FFFFFF"/>
			<stop  offset="1" style="stop-color:#FFFFFF;stop-opacity:0"/>
		</linearGradient>
		<path class="st38" d="M477.1,68.7c-0.1,0.4-0.1,0.7,0,0.9c0.2,0.3,0.7,0.6,1.5,0.9c0.6,0.2,1.1,0.3,1.5,0.2
			c0.4-0.1,0.8-0.1,1.2-0.2c0.3-0.1,0.6-0.2,1.1-0.4c0.1-0.1,0.3-0.1,0.4-0.2c1.3-0.7,7-2.7,8.2-3.8c1.4-1.2-0.1-3.7-4-3.2
			c-0.4,0.1-0.9,0.2-1.2,0.4l-0.3,0.1c-0.1,0.1-0.2,0.1-0.3,0.2c-0.6,0.3-1,0.7-1.5,1C482,65.8,477.2,68.2,477.1,68.7z"/>
		<linearGradient id="SVGID_33_" gradientUnits="userSpaceOnUse" x1="498.1247" y1="43.2437" x2="819.4659" y2="43.2437">
			<stop  offset="0" style="stop-color:#FFFFFF"/>
			<stop  offset="1" style="stop-color:#FFFFFF;stop-opacity:0"/>
		</linearGradient>
		<path class="st39" d="M502.3,56.4C574.2,29.9,631.7,22.3,701,18.9c37.8-1.8,67.4-0.1,87.5,5.2c14.8,3.9,24.4,9.8,28.3,17.7
			c7.7,15.4-3.1,24.3-12.9,26.1c-2,0.4-4,0.4-5.8,0.2c-1-0.1-1.9-0.4-2.7-0.7c-6.3-2.3-7.7-8.7-0.5-14.1c6.4-4.8,7.8-15.9-16.5-22.4
			c-0.6-0.2-1.1-0.3-1.7-0.4c-33.1-8.5-81.9-8.1-152.4-0.9c-72.3,9.8-111.1,25.8-120.1,30.1c-2.3,0.7-3.4,0.7-5.2-0.1
			C497.4,58.9,497.6,58,502.3,56.4z"/>
	</g>
	<g>
		<linearGradient id="SVGID_34_" gradientUnits="userSpaceOnUse" x1="455.3305" y1="76.6503" x2="469.6788" y2="76.6503">
			<stop  offset="0" style="stop-color:#FFFFFF;stop-opacity:0"/>
			<stop  offset="1" style="stop-color:#FFFFFF"/>
		</linearGradient>
		<path class="st40" d="M469.6,74.7c0.1-0.4,0.1-0.7,0-0.9c-0.2-0.3-0.7-0.6-1.5-0.9c-0.6-0.2-1.1-0.3-1.5-0.2
			c-0.4,0.1-0.8,0.1-1.2,0.2c-0.3,0.1-0.6,0.2-1.1,0.4c-0.1,0.1-0.3,0.1-0.4,0.2c-1.3,0.7-7,2.7-8.2,3.8c-1.4,1.2,0.1,3.7,4,3.2
			c0.4-0.1,0.9-0.2,1.2-0.4l0.3-0.1c0.1-0.1,0.2-0.1,0.3-0.2c0.6-0.3,1-0.7,1.5-1C464.7,77.6,469.5,75.2,469.6,74.7z"/>
		<linearGradient id="SVGID_35_" gradientUnits="userSpaceOnUse" x1="127.2282" y1="100.1579" x2="448.5694" y2="100.1579">
			<stop  offset="0" style="stop-color:#FFFFFF;stop-opacity:0"/>
			<stop  offset="1" style="stop-color:#FFFFFF"/>
		</linearGradient>
		<path class="st41" d="M444.4,87c-71.9,26.5-129.4,34.1-198.7,37.4c-37.8,1.8-67.4,0.1-87.5-5.2c-14.8-3.9-24.4-9.8-28.3-17.7
			c-7.7-15.4,3.1-24.3,12.9-26.1c2-0.4,4-0.4,5.8-0.2c1,0.1,1.9,0.4,2.7,0.7c6.3,2.3,7.7,8.7,0.5,14.1c-6.4,4.8-7.8,15.9,16.5,22.4
			c0.6,0.2,1.1,0.3,1.7,0.4c33.1,8.5,81.9,8.1,152.4,0.9c72.3-9.8,111.1-25.8,120.1-30.1c2.3-0.7,3.4-0.7,5.2,0.1
			C449.3,84.5,449.1,85.4,444.4,87z"/>
	</g>
	<g>
		<path class="st0" d="M443.1,157c0.1-0.4,0.1-0.7,0-0.9c-0.2-0.3-0.7-0.6-1.5-0.9c-0.6-0.2-1.1-0.3-1.5-0.2
			c-0.4,0.1-0.8,0.1-1.2,0.2c-0.3,0.1-0.6,0.2-1.1,0.4c-0.1,0.1-0.3,0.1-0.4,0.2c-1.3,0.7-7,2.7-8.2,3.8c-1.4,1.2,0.1,3.7,4,3.2
			c0.4-0.1,0.9-0.2,1.2-0.4l0.3-0.1c0.1-0.1,0.2-0.1,0.3-0.2c0.6-0.3,1-0.7,1.5-1C438.2,159.8,443,157.4,443.1,157z"/>
		<linearGradient id="SVGID_36_" gradientUnits="userSpaceOnUse" x1="100.7598" y1="182.3835" x2="422.101" y2="182.3835">
			<stop  offset="0" style="stop-color:#FFFFFF;stop-opacity:0"/>
			<stop  offset="1" style="stop-color:#FFFFFF"/>
		</linearGradient>
		<path class="st42" d="M417.9,169.3c-71.9,26.5-129.4,34.1-198.7,37.4c-37.8,1.8-67.4,0.1-87.5-5.2c-14.8-3.9-24.4-9.8-28.3-17.7
			c-7.7-15.4,3.1-24.3,12.9-26.1c2-0.4,4-0.4,5.8-0.2c1,0.1,1.9,0.4,2.7,0.7c6.3,2.3,7.7,8.7,0.5,14.1c-6.4,4.8-7.8,15.9,16.5,22.4
			c0.6,0.2,1.1,0.3,1.7,0.4c33.1,8.5,81.9,8.1,152.4,0.9c72.3-9.8,111.1-25.8,120.1-30.1c2.3-0.7,3.4-0.7,5.2,0.1
			C422.8,166.8,422.7,167.6,417.9,169.3z"/>
	</g>
	<g>
		<path class="st0" d="M421.3,200.8c0.1-0.4,0.1-0.7,0-0.9c-0.2-0.3-0.7-0.6-1.5-0.9c-0.6-0.2-1.1-0.3-1.5-0.2
			c-0.4,0.1-0.8,0.1-1.2,0.2c-0.3,0.1-0.6,0.2-1.1,0.4c-0.1,0.1-0.3,0.1-0.4,0.2c-1.3,0.7-7,2.7-8.2,3.8c-1.4,1.2,0.1,3.7,4,3.2
			c0.4-0.1,0.9-0.2,1.2-0.4l0.3-0.1c0.1-0.1,0.2-0.1,0.3-0.2c0.6-0.3,1-0.7,1.5-1C416.4,203.7,421.2,201.2,421.3,200.8z"/>
		<linearGradient id="SVGID_37_" gradientUnits="userSpaceOnUse" x1="78.9348" y1="226.2162" x2="400.276" y2="226.2162">
			<stop  offset="0" style="stop-color:#FFFFFF;stop-opacity:0"/>
			<stop  offset="1" style="stop-color:#FFFFFF"/>
		</linearGradient>
		<path class="st43" d="M396.1,213.1c-71.9,26.5-129.4,34.1-198.7,37.4c-37.8,1.8-67.4,0.1-87.5-5.2c-14.8-3.9-24.4-9.8-28.3-17.7
			c-7.7-15.4,3.1-24.3,12.9-26.1c2-0.4,4-0.4,5.8-0.2c1,0.1,1.9,0.4,2.7,0.7c6.3,2.3,7.7,8.7,0.5,14.1c-6.4,4.8-7.8,15.9,16.5,22.4
			c0.6,0.2,1.1,0.3,1.7,0.4c33.1,8.5,81.9,8.1,152.4,0.9c72.3-9.8,111.1-25.8,120.1-30.1c2.3-0.7,3.4-0.7,5.2,0.1
			C401,210.6,400.9,211.4,396.1,213.1z"/>
	</g>
	<g>
		<path class="st0" d="M400.2,242.9c0.1-0.4,0.1-0.7,0-0.9c-0.2-0.3-0.7-0.6-1.5-0.9c-0.6-0.2-1.1-0.3-1.5-0.2
			c-0.4,0.1-0.8,0.1-1.2,0.2c-0.3,0.1-0.6,0.2-1.1,0.4c-0.1,0.1-0.3,0.1-0.4,0.2c-1.3,0.7-7,2.7-8.2,3.8c-1.4,1.2,0.1,3.7,4,3.2
			c0.4-0.1,0.9-0.2,1.2-0.4l0.3-0.1c0.1-0.1,0.2-0.1,0.3-0.2c0.6-0.3,1-0.7,1.5-1C395.4,245.7,400.1,243.3,400.2,242.9z"/>
		<linearGradient id="SVGID_38_" gradientUnits="userSpaceOnUse" x1="57.8661" y1="268.2737" x2="379.2073" y2="268.2737">
			<stop  offset="0" style="stop-color:#FFFFFF;stop-opacity:0"/>
			<stop  offset="1" style="stop-color:#FFFFFF"/>
		</linearGradient>
		<path class="st44" d="M375,255.2c-71.9,26.5-129.4,34.1-198.7,37.4c-37.8,1.8-67.4,0.1-87.5-5.2c-14.8-3.9-24.4-9.8-28.3-17.7
			c-7.7-15.4,3.1-24.3,12.9-26.1c2-0.4,4-0.4,5.8-0.2c1,0.1,1.9,0.4,2.7,0.7c6.3,2.3,7.7,8.7,0.5,14.1c-6.4,4.8-7.8,15.9,16.5,22.4
			c0.6,0.2,1.1,0.3,1.7,0.4c33.1,8.5,81.9,8.1,152.4,0.9c72.3-9.8,111.1-25.8,120.1-30.1c2.3-0.7,3.4-0.7,5.2,0.1
			C379.9,252.6,379.8,253.5,375,255.2z"/>
	</g>
	<g>
		<path class="st0" d="M373.5,287.7c0.1-0.4,0.1-0.7,0-0.9c-0.2-0.3-0.7-0.6-1.5-0.9c-0.6-0.2-1.1-0.3-1.5-0.2
			c-0.4,0.1-0.8,0.1-1.2,0.2c-0.3,0.1-0.6,0.2-1.1,0.4c-0.1,0.1-0.3,0.1-0.4,0.2c-1.3,0.7-7,2.7-8.2,3.8c-1.4,1.2,0.1,3.7,4,3.2
			c0.4-0.1,0.9-0.2,1.2-0.4l0.3-0.1c0.1-0.1,0.2-0.1,0.3-0.2c0.6-0.3,1-0.7,1.5-1C368.6,290.6,373.4,288.1,373.5,287.7z"/>
		<linearGradient id="SVGID_39_" gradientUnits="userSpaceOnUse" x1="31.1432" y1="313.1264" x2="352.4844" y2="313.1264">
			<stop  offset="0" style="stop-color:#FFFFFF;stop-opacity:0"/>
			<stop  offset="1" style="stop-color:#FFFFFF"/>
		</linearGradient>
		<path class="st45" d="M348.3,300c-71.9,26.5-129.4,34.1-198.7,37.4c-37.8,1.8-67.4,0.1-87.5-5.2c-14.8-3.9-24.4-9.8-28.3-17.7
			c-7.7-15.4,3.1-24.3,12.9-26.1c2-0.4,4-0.4,5.8-0.2c1,0.1,1.9,0.4,2.7,0.7c6.3,2.3,7.7,8.7,0.5,14.1c-6.4,4.8-7.8,15.9,16.5,22.4
			c0.6,0.2,1.1,0.3,1.7,0.4c33.1,8.5,81.9,8.1,152.4,0.9c72.3-9.8,111.1-25.8,120.1-30.1c2.3-0.7,3.4-0.7,5.2,0.1
			C353.2,297.5,353.1,298.3,348.3,300z"/>
	</g>
	<g>
		<path class="st0" d="M352.4,329.8c0.1-0.4,0.1-0.7,0-0.9c-0.2-0.3-0.7-0.6-1.5-0.9c-0.6-0.2-1.1-0.3-1.5-0.2
			c-0.4,0.1-0.8,0.1-1.2,0.2c-0.3,0.1-0.6,0.2-1.1,0.4c-0.1,0.1-0.3,0.1-0.4,0.2c-1.3,0.7-7,2.7-8.2,3.8c-1.4,1.2,0.1,3.7,4,3.2
			c0.4-0.1,0.9-0.2,1.2-0.4l0.3-0.1c0.1-0.1,0.2-0.1,0.3-0.2c0.6-0.3,1-0.7,1.5-1C347.6,332.7,352.3,330.2,352.4,329.8z"/>
		<linearGradient id="SVGID_40_" gradientUnits="userSpaceOnUse" x1="10.0745" y1="355.1839" x2="331.4157" y2="355.1839">
			<stop  offset="0" style="stop-color:#FFFFFF;stop-opacity:0"/>
			<stop  offset="1" style="stop-color:#FFFFFF"/>
		</linearGradient>
		<path class="st46" d="M327.3,342.1c-71.9,26.5-129.4,34.1-198.7,37.4c-37.8,1.8-67.4,0.1-87.5-5.2c-14.8-3.9-24.4-9.8-28.3-17.7
			c-7.7-15.4,3.1-24.3,12.9-26.1c2-0.4,4-0.4,5.8-0.2c1,0.1,1.9,0.4,2.7,0.7c6.3,2.3,7.7,8.7,0.5,14.1c-6.4,4.8-7.8,15.9,16.5,22.4
			c0.6,0.2,1.1,0.3,1.7,0.4c33.1,8.5,81.9,8.1,152.4,0.9c72.3-9.8,111.1-25.8,120.1-30.1c2.3-0.7,3.4-0.7,5.2,0.1
			C332.1,339.6,332,340.4,327.3,342.1z"/>
	</g>
</g>
</svg>
