<?xml version="1.0" encoding="utf-8"?>
<!-- Generator: Adobe Illustrator 24.0.0, SVG Export Plug-In . SVG Version: 6.00 Build 0)  -->
<svg version="1.1" id="Capa_1" xmlns="http://www.w3.org/2000/svg" xmlns:xlink="http://www.w3.org/1999/xlink" x="0px" y="0px"
	 viewBox="0 0 500 264.7" style="enable-background:new 0 0 500 264.7;" xml:space="preserve">
<style type="text/css">
	.st0{fill:none;}
	.st1{fill:url(#SVGID_1_);}
	.st2{fill:#FFFFFF;}
	.st3{fill:url(#SVGID_2_);}
	.st4{fill:url(#SVGID_3_);}
	.st5{fill:url(#SVGID_4_);}
	.st6{fill:url(#SVGID_5_);}
</style>
<g>
	<line class="st0" x1="271.2" y1="178.7" x2="273.1" y2="178.9"/>
	<g>
		
			<linearGradient id="SVGID_1_" gradientUnits="userSpaceOnUse" x1="33.913" y1="1020.6628" x2="33.913" y2="807.4539" gradientTransform="matrix(0.9893 0.1462 -0.1462 0.9893 339.0591 -786.7939)">
			<stop  offset="2.793296e-03" style="stop-color:#B2B2B2"/>
			<stop  offset="0.8255" style="stop-color:#DCDCDC"/>
			<stop  offset="1" style="stop-color:#E5E5E5"/>
		</linearGradient>
		<path class="st1" d="M251.5,209.3c-0.9,0-1.6-0.1-2.1-0.4c-1.3-0.6-2.4-1.8-3-3.5c-0.9-2.3-1.8-6.1-2.6-11.5l-0.2-1.2
			c-1.2-6.5-1.9-10.8-2.8-20.6c-0.1-0.9-0.8-1.4-1.6-1.4c-0.3,0-0.9,0.1-1.3,0.8c-2.7,4.6-6.3,8.5-10.6,11.5
			c-2.6,1.9-5.3,3.4-7.8,4.3c-2.4,0.9-4.8,1.4-7.1,1.4c-2.2,0-4.3-0.4-6.3-1.2c-6.3-2.6-12.2-8.9-17.8-19c-0.9-1.6-1.7-3.3-2.5-5.1
			c-0.4-1-1.3-1.1-1.6-1.1c-0.9,0-1.8,0.6-1.8,1.7l0,0.1c-0.1,9.3,0.6,17.1,2.2,23.2c2,7.9,2,13.3-0.2,16.7c-1.2,1.9-3.1,3-5.6,3.4
			c-0.2,0-0.5,0.1-0.8,0.1c-0.8,0-2-0.1-3.4-0.4c-5.3-1-9-2.3-11.2-4c-1.5-1.2-3.1-3-4.8-5.5c-5.4-7.7-13.6-26.5-24.2-55.8
			c-1.5-4.1-2.8-7.7-3.9-10.8c-0.4,1.9-0.8,4-1.3,6.2c-6.1,29.9-11.1,48.3-15.4,56.3c-1.3,2.5-2.6,4.4-3.9,5.6
			c-2,1.8-5.4,3.2-10.6,4.3c-1.5,0.3-2.6,0.5-3.5,0.5c-0.3,0-0.5,0-0.7,0c-7.1-1-10.1-7.6-8.8-19.8c0.6-6.2,0.1-14-1.5-23.2
			c-0.9-5-2.1-10.7-3.7-16.9c-4.4-17-10.6-34.7-18.5-52.6c-4.2-9.5-8.5-17.6-12.8-24c-1.3-1.9-1.5-4.1-0.4-6.1
			c1.2-2.2,3.6-3.6,6.3-3.6c1.1,0,2.1,0.2,3.2,0.6l0.2,0.1c8,3.6,15.3,10.4,21.7,20.2c10.5,20.9,18.4,43.6,23.4,67.5l0.1,0.2
			c0.1,0.6,0.7,0.7,0.8,0.7c0.4,0,0.8-0.2,0.9-0.8l2.7-24.9c1.2-10.3,2.3-17.3,3.3-20.9l0-0.2c1-3.7,1.9-6.9,3.6-9.9
			c1.2-2.2,4.4-6.2,5.3-6.9c3.2-2.4,7.4-3.5,10.2-3.5c0.4,0,0.9,0,1.2,0.1c5.2,0.7,9.2,6,11.1,14.6c0.1,0.2,0.8,2.5,1.6,5.4
			c2.1,6.8,5.6,18.3,7.5,25.3l6.7,24.9c0.2,0.6,0.6,0.6,0.8,0.6c0.3,0,0.8-0.2,0.9-0.8c1.3-24,5.6-46.8,12.8-67.8
			c4.9-10.1,11.2-17,18.6-20.8l0.2-0.1c1-0.5,2.1-0.7,3.3-0.7c2.7,0,5.4,1.5,6.8,3.7c1.1,1.8,1.2,3.9,0.3,5.7
			c-2.2,4.4-6.8,15.2-9,21.6c0.4-0.1,0.8-0.2,1.3-0.3c1.8-0.5,4.5-1.2,8.3-1.2c1.8,0,3.7,0.2,5.7,0.5c6,1.1,12,3.9,17.8,8.2l0.2,0.2
			c0.5,0.4,1,0.6,1.5,0.6c0.7,0,1.4-0.3,1.9-0.9c0.4-0.6,0.6-1.3,0.4-2c-2.3-9.2-5.1-18.4-8.3-27.2c-0.1-0.2-0.1-0.4,0-0.6
			c0.1-0.2,0.3-0.3,0.4-0.4l2.5-0.7c4.2-1.1,9.5-1.9,15.7-2.5c0.5-0.1,1-0.1,1.5-0.1c5.7,0,10,3.3,12.6,9.9c0.6,1.4,1.1,3,1.5,4.9
			c2.4,10.1,4.5,20.8,6.3,31.8c0.6,7.3,1,10.6,1.3,12.1c0.2-0.2,0.4-0.6,0.7-1c5.2-7.2,10-16.1,14.3-26.4c3.6-8.7,5.9-15.7,6.7-20.6
			c1.9-13.8,3.1-21.5,3.6-23.6c0.8-3,2-4.9,3.7-5.6c0.4-0.2,0.8-0.4,1.3-0.5c0.4-0.1,0.9-0.2,1.3-0.2c3.3,0,7,2.9,11.3,8.7
			c1.7,2.1,3,4.3,3.9,6.6c1.8,4.6,2.1,9.6,0.8,14.9c-1.8,6.3-6.3,15.4-13.5,27.2c-7.1,11.8-14.1,21.6-20.7,29.2l-4.7,5.3
			c5.9,6.8,11.5,13,16.7,18.5c0.4-4.7,1.9-17.4,4-23.4c2.5-7.1,5.6-12.7,9.4-16.6c3-2.8,7.9-4.8,14.8-5.9c0.8-0.1,1.6-0.2,2.5-0.2
			c4.1,0,8.2,1.6,12.1,4.9c3.5,3,6,6.8,7.2,11.3l0.8,3.4c0,0,0,0.1,0,0.1c0.4,10-7.5,20.3-23.6,30.6c-1.9,1.2-2.9,3.3-2.7,5.5
			c0.4,4.9,1,8.8,1.7,11.4c1.5,5.2,4.9,7.7,10.4,7.7c1,0,2-0.1,3.1-0.2c7-1.1,12.4-8.7,16.3-22.6c2.5-9,5.1-18.6,6.8-28.9
			c0.1-2.3,0.3-4.2,0.6-6.4c0.2-1.8,0.4-3.7,0.6-6.4c1.1-12.6,1-13.8,1-14.6c0-1.3,0.7-2.4,1.6-3.4c0.9-1,1.8-1.6,2.9-1.8
			c0.7-0.1,1.5-0.2,2.1-0.2c6.1,0,10.3,4.3,12.5,12.9c1.2,4.6,0.9,7.4-0.4,20.4l-0.4,3.8l0,0.7c0,0,0.1,0,0.1,0c0.1,0,0.1,0,0.2,0
			c0.8-0.1,3.2-1.2,9.7-5.4c20.7-13.3,29.4-28.2,25.9-44.3c-0.8-3.2-3.9-6.7-9.1-10.6c-4.6-3.4-10.5-5.1-17.6-5.1
			c-1,0-1.9,0-2.9,0.1c-1.1,0.1-2.3,0.2-3.4,0.4c-7.4,1.1-25.6,10.2-25.7,14.3c-0.2,5.2-1.8,8-4.7,8.5c-0.3,0-0.5,0.1-0.8,0.1
			c-0.3,0-0.6,0-0.9-0.1c-3.6-0.4-6.2-1.1-7.7-2.1c-2-1.4-3.3-3.1-3.8-5c-0.7-2.5,0-5.6,2-9.1c3.3-5.7,21.8-17.5,36.6-20.2
			c3.4-0.5,7.2-0.8,11.1-0.8c9.6,0,18.7,1.6,24.3,4.4c9.1,4.6,15.6,11.6,19.4,20.7c0.6,1.4,1.1,2.8,1.5,4.3c2.1,8.1,1,17.1-3.1,26.7
			c-4.8,11.4-16.4,22.4-34.3,32.8c-4.7,2.6-6.8,3.8-7.7,4.4c0.6,0.6,2.3,1.9,7.3,4.8c5.4,3.1,9.1,4.9,11.1,5.3
			c1.2,0.3,2.4,0.4,3.5,0.4c0.8,0,1.6-0.1,2.4-0.2c5.9-0.9,11.5-5.2,16.6-12.7c2.9-4.6,5.1-6.9,6.9-7.1c0,0,0.1,0,0.1,0
			c3.1,0,4.2,1.6,4.5,3c0.6,2.2-0.1,5.6-2.2,10.4c-6,13.2-15,20.8-26.8,22.6c-0.7,0.1-1.5,0.2-2.3,0.2c-2.7,0-6.1-0.6-10.2-1.8
			c-4.7-1.3-9.5-3.3-14.2-5.8l-1.3-0.7c-4.3-2.3-13-7.1-17.1-7.5c-2.1,7.2-4.9,13.3-8.1,17.9c-6.2,9-14,14.7-23.3,16.9
			c-0.9,0.2-1.8,0.4-2.9,0.6c-1.9,0.3-3.9,0.5-5.9,0.5c-0.5,0-0.9,0-1.4,0c-3.9-0.1-7.5-0.8-10.6-2c0,0-0.1,0-0.1-0.1l-1.6-1
			c-2.4-1.4-4.5-3.2-6.4-5.3c-2.4-2.8-5.5-6.5-6.3-8.4c-7.8-7.1-17.6-16.2-29-27.1c-0.1,42.7-0.2,45-0.3,46.3c0,0.2,0,0.3,0,0.6
			c-0.1,2.7-2.7,4.1-3.2,4.4c-0.9,0.4-1.6,0.7-2.2,1c-0.7,0.2-1.2,0.4-1.8,0.6C254.7,209,252.8,209.3,251.5,209.3z M208.1,108
			c-3.7,0-7.8,2.8-7.8,7.4c0,1.5,0,3.2,0,5.1c0.1,10.7,0.7,18.7,1.7,23.9c1.6,7.2,3.4,12.5,5.4,15.7c2,3.2,3.2,5.2,3.7,5.9
			c1.9,2.7,4.8,3,6,3c1.2,0,2.3-0.3,2.9-0.7c3.3-2.3,4.2-5.2,5.8-14.1c1-5.4,1.2-10.9,0.6-16.4c-0.5-4.1-1.2-7.4-2.1-9.9
			c-1.2-3.5-3.8-8-7.7-13.4c-0.9-1.2-1.8-2.3-2.4-3.1l-0.5-0.6c-0.1-0.2-0.3-0.3-0.4-0.5C211.5,108.4,209.4,108,208.1,108z
			 M320.4,125c-3.7,0-7.4,3.5-10.9,10.2c-2.2,4.2-4,9.6-5.2,15.9c-0.1,0.4,0,0.7,0.2,1c0.2,0.3,0.6,0.4,0.9,0.4
			c0.2,0,0.4-0.1,0.6-0.2c11.8-7,18.2-12.9,19-17.6c0.3-1.9,0.4-3.5,0.3-4.8C325,126.6,323.4,125,320.4,125l0.1-0.7L320.4,125z"/>
		<path class="st2" d="M295.8,46.8c3,0,6.6,2.8,10.7,8.4c1.6,2.1,2.9,4.2,3.8,6.4c1.8,4.5,2,9.3,0.7,14.5c-1.8,6.2-6.2,15.2-13.4,27
			c-7.1,11.8-14,21.5-20.7,29.1l-5.1,5.8c6.5,7.4,12.6,14.2,18.3,20.2c0,0,0,0,0,0c0-1.1,1.6-17.8,4.1-24.8c2.4-7,5.5-12.5,9.2-16.3
			c2.8-2.7,7.6-4.6,14.4-5.7c0.8-0.1,1.6-0.2,2.3-0.2c3.9,0,7.8,1.6,11.7,4.7c3.4,2.9,5.8,6.5,6.9,11l0.8,3.4
			c0.4,9.8-7.3,19.8-23.3,30c-2.1,1.3-3.2,3.7-3,6.2c0.4,5,1,8.8,1.7,11.6c1.6,5.5,5.3,8.3,11.1,8.3c1,0,2.1-0.1,3.2-0.3
			c7.3-1.1,12.9-8.9,16.9-23.2c2.4-8.8,5.1-18.6,6.9-28.9c0.2-4.3,0.7-6.8,1.2-12.9c1.1-12.7,1-13.9,1-14.7c0-1.1,0.6-2,1.4-2.9
			c0.7-0.9,1.5-1.4,2.4-1.5c0.7-0.1,1.4-0.2,2-0.2c5.7,0,9.7,4.1,11.8,12.4c1.3,4.9,0.9,7.5-0.8,23.9l0,0.9c0.1,0.4,0.4,0.6,0.9,0.6
			c0.1,0,0.2,0,0.3,0c1.3-0.2,4.7-2.1,10-5.5c21.1-13.5,29.8-28.5,26.3-45c-0.9-3.4-4-7.1-9.4-11c-4.7-3.5-10.8-5.2-18.1-5.2
			c-1,0-2,0-3,0.1c-1.1,0.1-2.3,0.2-3.5,0.4c-7.5,1.1-26.2,10.2-26.4,15c-0.2,4.8-1.5,7.4-4.1,7.8c-0.2,0-0.5,0.1-0.7,0.1
			c-0.3,0-0.5,0-0.8-0.1c-3.5-0.4-6-1.1-7.4-2c-1.8-1.3-3-2.8-3.5-4.6c-0.6-2.4,0-5.2,1.9-8.5c3.3-5.7,21.7-17.2,36.1-19.8
			c3.4-0.5,7.2-0.8,11-0.8c8.9,0,18.1,1.4,23.9,4.3c9,4.5,15.3,11.3,19.1,20.3c0.6,1.4,1.1,2.7,1.5,4.2c2,8,1,16.7-3.1,26.3
			c-4.8,11.3-16.1,22.1-34,32.4c-5,2.7-7.8,4.4-8.4,4.8c0.2,0.8,2.9,2.7,7.9,5.6c5.4,3.2,9.2,5,11.3,5.4c1.2,0.3,2.5,0.4,3.7,0.4
			c0.8,0,1.7-0.1,2.5-0.2c6.2-0.9,11.9-5.3,17.1-13c2.7-4.3,4.9-6.6,6.4-6.8c0,0,0,0,0,0c2.1,0,3.4,0.8,3.8,2.5
			c0.5,2.1-0.2,5.4-2.2,9.9c-5.9,13-14.7,20.4-26.3,22.2c-0.7,0.1-1.4,0.2-2.2,0.2c-2.6,0-6-0.6-10-1.7c-4.7-1.3-9.4-3.2-14.1-5.8
			c-4-2.2-14.9-8.3-19.3-8.3c-2.1,7.4-4.9,13.5-8.2,18.2c-6.1,8.9-13.7,14.5-22.8,16.7c-0.9,0.2-1.9,0.4-2.8,0.6
			c-1.9,0.3-3.8,0.4-5.8,0.4c-0.5,0-0.9,0-1.4,0c-3.9-0.1-7.3-0.7-10.4-1.9l-1.6-1c-2.3-1.4-4.4-3.2-6.2-5.2
			c-2.5-2.9-5.6-6.7-6.3-8.3c-8-7.2-18.1-16.7-30.3-28.4c-0.1,50.6-0.2,46.5-0.3,48.6c-0.1,2.1-2,3.3-2.8,3.7
			c-0.8,0.4-1.5,0.7-2.1,0.9c-0.6,0.2-1.2,0.4-1.7,0.5c-2.3,0.6-4,0.9-5.3,0.9c-0.8,0-1.4-0.1-1.8-0.3c-1.2-0.5-2.1-1.6-2.7-3.1
			c-0.9-2.2-1.7-6-2.6-11.4c-1.3-7.2-2.1-11.4-3-21.8c-0.1-1.3-1.2-2.1-2.3-2.1c-0.7,0-1.5,0.4-1.9,1.1c-2.7,4.6-6.1,8.3-10.4,11.3
			c-2.6,1.9-5.2,3.3-7.7,4.3c-2.4,0.9-4.7,1.4-6.9,1.4c-2.1,0-4.1-0.4-6-1.2c-6.1-2.5-11.9-8.7-17.5-18.7c-0.9-1.6-1.7-3.3-2.5-5
			c-0.5-1-1.4-1.5-2.3-1.5c-1.3,0-2.5,0.9-2.5,2.5l0,0.1c-0.1,9.3,0.6,17.1,2.2,23.4c3,11.7,1.3,18.1-5.2,19.2c-0.2,0-0.4,0-0.7,0
			c-0.8,0-1.8-0.1-3.2-0.4c-5.2-1-8.8-2.3-10.9-3.9c-1.4-1.1-3-2.9-4.6-5.3c-5.4-7.7-13.5-26.3-24.1-55.6c-1.9-5.1-3.5-9.5-4.8-13.2
			c-0.5,2.6-1.1,5.5-1.8,8.7c-6,29.5-11.1,48.2-15.4,56.1c-1.3,2.5-2.5,4.3-3.8,5.4c-1.8,1.7-5.3,3.1-10.3,4.1
			c-1.4,0.3-2.5,0.4-3.3,0.4c-0.2,0-0.4,0-0.6,0c-6.7-0.9-9.4-7.3-8.2-19c0.6-6.3,0.1-14.1-1.5-23.4c-0.9-5.2-2.1-10.8-3.7-16.9
			C77.2,126.7,71,109.1,63,91.1c-4.2-9.6-8.5-17.6-12.9-24.1c-2.7-4,0.7-8.5,5.3-8.5c0.9,0,1.9,0.2,2.9,0.6c0.1,0,0.1,0,0.2,0.1
			c7.9,3.5,15,10.2,21.4,20c10.5,20.9,18.3,43.3,23.3,67.2l0.1,0.2c0.2,0.8,0.9,1.2,1.5,1.2c0.7,0,1.5-0.5,1.6-1.4l2.7-24.9
			c1.2-10.4,2.3-17.3,3.3-20.8c1.1-3.8,1.9-6.9,3.5-10c1.1-2.1,4.3-6,5.1-6.7c2.9-2.2,6.9-3.3,9.7-3.3c0.4,0,0.8,0,1.1,0.1
			c4.5,0.6,8.6,5.3,10.5,14c0.2,0.9,6.3,20.5,9.2,30.8l6.7,24.9c0.2,0.8,0.9,1.2,1.5,1.2c0.8,0,1.5-0.5,1.6-1.5
			c1.3-24,5.5-46.5,12.7-67.6c4.9-9.9,11-16.7,18.2-20.4c0.1,0,0.1,0,0.2-0.1c1-0.5,2-0.7,3-0.7c4.5,0,8.5,4.3,6.4,8.4
			c-2.4,4.7-7.3,16.5-9.4,22.7c0.1,0,0.2,0,0.3,0c1.6,0,4.6-1.6,10.4-1.6c1.6,0,3.5,0.1,5.6,0.5c5.9,1.1,11.8,3.8,17.5,8.1
			c0.1,0.1,0.2,0.1,0.2,0.2c0.6,0.5,1.3,0.7,1.9,0.7c1.8,0,3.5-1.7,3-3.8c-2.3-9.2-5.1-18.3-8.3-27.3l2.5-0.7
			c4.2-1.1,9.4-1.9,15.6-2.5c0.5,0,1-0.1,1.5-0.1c5.4,0,9.4,3.2,11.9,9.5c0.6,1.4,1,3,1.5,4.8c2.4,10.1,4.5,20.7,6.3,31.8
			c0.7,8.2,1.2,12.7,1.5,13.5l0,0.1c0.1,0,0.7-0.7,1.7-2.1c5.2-7.3,10-16.2,14.4-26.6c3.6-8.8,5.9-15.8,6.7-20.8
			c1.9-13.6,3.1-21.5,3.5-23.6c0.7-2.8,1.8-4.6,3.3-5.1c0.3-0.2,0.7-0.4,1.1-0.5C295.1,46.9,295.5,46.8,295.8,46.8 M217.1,169.7
			c1.4,0,2.6-0.3,3.3-0.9c3.5-2.5,4.5-5.6,6.1-14.6c1-5.4,1.2-11,0.6-16.6c-0.5-4.2-1.2-7.5-2.1-10.1c-1.2-3.5-3.8-8.1-7.8-13.6
			c-1.1-1.6-2.2-2.7-3-3.7c-0.1-0.2-0.3-0.3-0.5-0.5c-1.6-1.6-3.6-2.4-5.7-2.4c-4.3,0-8.5,3.3-8.5,8.1c0,1.5,0,3.3,0,5.1
			c0.1,10.8,0.7,18.8,1.7,24c1.6,7.4,3.5,12.7,5.5,15.9c2,3.3,3.2,5.2,3.7,5.9C212.2,168.8,214.8,169.7,217.1,169.7 M305.5,153.3
			c0.3,0,0.7-0.1,1-0.3c12-7.2,18.5-13.2,19.3-18.1c0.4-2,0.4-3.6,0.3-5c-0.4-3.7-2.3-5.6-5.6-5.6c0,0-0.1,0-0.1,0
			c-4,0-7.8,3.6-11.5,10.6c-2.3,4.3-4,9.7-5.3,16.1C303.4,152.2,304.4,153.3,305.5,153.3 M295.9,45.3L295.9,45.3
			c-0.5,0-1,0.1-1.5,0.2c-0.5,0.1-1,0.3-1.4,0.6c-1.9,0.8-3.3,2.9-4.1,6.1c-0.5,2.1-1.7,9.9-3.6,23.7c-0.8,4.8-3.1,11.7-6.7,20.4
			c-4.2,10-8.9,18.6-13.9,25.8c-0.2-1.9-0.6-5.1-1-10.3c0,0,0-0.1,0-0.1c-1.8-11.1-3.9-21.8-6.3-31.9c-0.5-1.9-1-3.5-1.5-5
			c-2.7-6.9-7.2-10.4-13.3-10.4c-0.5,0-1.1,0-1.6,0.1c-6.3,0.6-11.6,1.5-15.8,2.6c0,0,0,0-0.1,0l-2.5,0.7c-0.4,0.1-0.7,0.4-0.9,0.7
			c-0.2,0.4-0.2,0.8-0.1,1.1c3.2,8.9,6,18,8.3,27.2c0.2,0.6-0.1,1.1-0.3,1.4c-0.3,0.4-0.8,0.7-1.3,0.7c-0.4,0-0.7-0.1-1-0.4
			l-0.2-0.2c-5.9-4.5-12-7.3-18.1-8.4c-2.1-0.3-4-0.5-5.8-0.5c-3.9,0-6.7,0.7-8.5,1.2c0,0,0,0,0,0c2.3-6.4,6.4-16.1,8.5-20.2
			c1-2.1,0.9-4.4-0.3-6.4c-1.5-2.5-4.4-4.1-7.4-4.1c-1.2,0-2.4,0.3-3.6,0.8l-0.2,0.1c-7.6,3.9-13.9,11-18.9,21.1
			c0,0.1-0.1,0.1-0.1,0.2c-7.2,21.1-11.5,44-12.8,68c0,0.1,0,0.1-0.1,0.1c-0.1,0-0.1,0-0.1-0.1l-6.7-24.9c-2-7.1-5.5-18.5-7.5-25.3
			c-0.8-2.8-1.6-5.1-1.6-5.4c-2-8.9-6.2-14.4-11.7-15.1c-0.4-0.1-0.9-0.1-1.3-0.1c-2.9,0-7.3,1.1-10.6,3.6c-1.1,0.9-4.4,4.9-5.6,7.2
			c-1.6,3.1-2.6,6.4-3.6,10.1l0,0.2c-1,3.7-2.1,10.7-3.3,21l-2.7,24.9c0,0.1,0,0.1-0.1,0.1c-0.1,0-0.1,0-0.1-0.1l-0.1-0.2
			c-5-24-12.9-46.7-23.4-67.6c0,0-0.1-0.1-0.1-0.1c-6.5-9.9-13.9-16.8-22-20.5l-0.2-0.1c-1.1-0.5-2.3-0.7-3.5-0.7
			c-2.9,0-5.7,1.6-6.9,4c-1.2,2.2-1,4.6,0.5,6.8c4.3,6.4,8.6,14.4,12.8,23.9c7.9,17.9,14.2,35.6,18.5,52.5
			c1.6,6.1,2.8,11.8,3.6,16.8c1.6,9.2,2.1,16.9,1.5,23c-1.3,12.6,1.9,19.6,9.5,20.6c0.2,0,0.5,0,0.8,0c0.9,0,2.1-0.2,3.6-0.5
			c5.3-1.1,8.9-2.6,11-4.5c1.4-1.3,2.7-3.2,4.1-5.9c4.3-8,9.4-26.5,15.5-56.4c0.3-1.3,0.5-2.5,0.7-3.7c0.9,2.5,1.9,5.3,3.1,8.4
			c10.8,29.8,18.7,48.1,24.3,56c1.7,2.5,3.4,4.5,4.9,5.7c2.3,1.8,6.1,3.2,11.5,4.2c1.5,0.3,2.6,0.4,3.5,0.4c0.4,0,0.7,0,0.9-0.1
			c2.7-0.4,4.8-1.7,6.1-3.8c2.3-3.5,2.4-9.2,0.3-17.2c-1.6-6.1-2.3-13.8-2.2-23l0-0.1c0-0.8,0.7-1,1.1-1c0.3,0,0.7,0.1,0.9,0.6
			c0.8,1.8,1.7,3.5,2.6,5.1c5.7,10.2,11.8,16.7,18.2,19.3c2.1,0.8,4.3,1.3,6.6,1.3c2.4,0,4.9-0.5,7.4-1.5c2.6-1,5.3-2.5,8-4.4
			c4.4-3.1,8-7,10.8-11.7c0.2-0.3,0.4-0.4,0.7-0.4c0.3,0,0.8,0.2,0.8,0.7c0.9,9.8,1.7,14.1,2.8,20.7l0.2,1.2
			c0.8,5.4,1.7,9.4,2.6,11.7c0.8,1.9,1.9,3.2,3.4,3.9c0.6,0.3,1.4,0.4,2.4,0.4c1.4,0,3.3-0.3,5.7-0.9c0.5-0.1,1.1-0.3,1.8-0.6
			c0.6-0.2,1.4-0.6,2.3-1c0.6-0.3,3.5-1.9,3.6-5c0-0.2,0-0.4,0-0.6c0.1-1.3,0.2-3.6,0.3-44.6c10.9,10.4,20.1,19.1,27.7,25.9
			c1.2,2.5,5.5,7.4,6.4,8.4c1.9,2.1,4.1,4,6.5,5.5l1.6,1c0.1,0,0.2,0.1,0.2,0.1c3.2,1.2,6.9,1.9,10.9,2c0.5,0,0.9,0,1.4,0
			c2.1,0,4.1-0.2,6-0.5c1.1-0.2,2-0.4,2.9-0.6c9.4-2.2,17.4-8,23.7-17.2c3.2-4.5,5.9-10.4,8-17.5c4.2,0.8,12.5,5.3,16.2,7.3
			c0.5,0.3,0.9,0.5,1.3,0.7c4.7,2.6,9.6,4.6,14.4,5.9c4.1,1.2,7.6,1.8,10.4,1.8c0.9,0,1.7-0.1,2.4-0.2c12.1-1.9,21.3-9.6,27.4-23
			c2.2-5,2.9-8.5,2.3-10.9c-0.3-1.3-1.5-3.5-5.2-3.5c-0.1,0-0.2,0-0.2,0c-2,0.3-4.3,2.6-7.4,7.5c-5,7.3-10.4,11.5-16.1,12.4
			c-0.8,0.1-1.5,0.2-2.3,0.2c-1.1,0-2.2-0.1-3.4-0.4c-1.3-0.3-4.3-1.4-10.9-5.3c-3.7-2.1-5.5-3.3-6.4-4c1.1-0.7,3.1-1.8,6.8-3.8
			c18.1-10.5,29.8-21.6,34.7-33.2c4.2-9.8,5.3-18.9,3.2-27.2c-0.4-1.5-0.9-3-1.5-4.4c-3.9-9.2-10.5-16.3-19.8-21
			c-5.7-2.8-14.9-4.5-24.6-4.5c-3.9,0-7.8,0.3-11.2,0.8c-14,2.5-33.4,14.1-37.2,20.5c-2.1,3.7-2.8,6.9-2.1,9.6
			c0.6,2.1,1.9,4,4.1,5.4c1.6,1.1,4.2,1.8,8,2.2c0.3,0,0.7,0.1,1,0.1c0.3,0,0.6,0,0.9-0.1c3.3-0.5,5.1-3.6,5.3-9.2
			c0-0.9,2.1-3.6,9.7-7.6c5.6-3,11.9-5.4,15.5-6c1.1-0.2,2.2-0.3,3.3-0.4c1-0.1,2-0.1,2.9-0.1c6.9,0,12.7,1.7,17.2,4.9
			c5.1,3.7,8,7.1,8.9,10.2c3.4,15.7-5.2,30.4-25.6,43.5c-5.5,3.6-7.9,4.8-8.9,5.2l0.4-3.6c1.4-13.1,1.6-15.9,0.4-20.7
			c-2.4-8.9-6.8-13.4-13.2-13.4c-0.7,0-1.5,0.1-2.2,0.2c-1.2,0.2-2.3,0.9-3.3,2c-0.9,1.1-1.8,2.3-1.7,3.9c0,0.7,0.1,2-1,14.5
			c-0.2,2.7-0.4,4.7-0.6,6.4c-0.2,2.2-0.4,4-0.6,6.4c-1.8,10.2-4.3,19.8-6.8,28.7c-3.8,13.6-9.1,21.1-15.7,22.1
			c-1,0.2-2.1,0.2-3,0.2c-5.1,0-8.2-2.4-9.7-7.2c-0.7-2.6-1.3-6.4-1.7-11.3c-0.2-1.9,0.7-3.8,2.4-4.8c16.3-10.4,24.4-20.9,23.9-31.2
			c0-0.1,0-0.2,0-0.3l-0.8-3.4c-1.3-4.7-3.8-8.7-7.4-11.8c-4.1-3.4-8.3-5.1-12.6-5.1c-0.9,0-1.7,0.1-2.6,0.2
			c-7.1,1.1-12,3.1-15.1,6.1c0,0,0,0,0,0c-3.8,4-7,9.7-9.5,16.9c-1.9,5.4-3.3,16.4-3.9,21.9c-4.8-5.1-9.9-10.7-15.2-16.8l4.3-4.8
			c6.7-7.6,13.7-17.5,20.8-29.3c7.3-12,11.7-21,13.5-27.4c1.4-5.5,1.1-10.7-0.8-15.4c-0.9-2.3-2.3-4.6-4-6.8
			C303.3,48.3,299.4,45.4,295.9,45.3L295.9,45.3L295.9,45.3z M202.7,144.2c-1-5.1-1.5-13.1-1.7-23.7c0-1.8,0-3.6,0-5.1
			c0-4.1,3.7-6.7,7.1-6.7c1.2,0,3.1,0.3,4.6,1.9c0.1,0.1,0.3,0.3,0.4,0.4c0.2,0.2,0.3,0.4,0.5,0.6c0.7,0.8,1.5,1.8,2.4,3
			c3.9,5.4,6.4,9.9,7.6,13.2c0.9,2.5,1.6,5.8,2.1,9.8c0.6,5.5,0.4,10.9-0.6,16.2c-1.6,9.2-2.6,11.6-5.5,13.7
			c-0.4,0.3-1.3,0.6-2.5,0.6c-1,0-3.7-0.3-5.4-2.7c-0.5-0.6-1.7-2.6-3.7-5.8C206.1,156.6,204.3,151.4,202.7,144.2L202.7,144.2z
			 M305.5,151.8c-0.1,0-0.3-0.1-0.4-0.2c-0.1-0.1-0.1-0.2-0.1-0.4c1.2-6.2,2.9-11.5,5.1-15.7c3.4-6.5,6.8-9.8,10.2-9.8l0.1,0
			c1.8,0,3.7,0.5,4.1,4.3c0.1,1.2,0,2.8-0.3,4.6c-0.5,3.1-4.2,8.5-18.6,17.1C305.7,151.8,305.6,151.8,305.5,151.8L305.5,151.8z"/>
	</g>
	<g>
		<g>
			
				<linearGradient id="SVGID_2_" gradientUnits="userSpaceOnUse" x1="2146.4692" y1="-2242.0186" x2="2155.697" y2="-2242.0186" gradientTransform="matrix(0.5264 0.5017 -1.0439 0.9183 -3048.3147 1177.2109)">
				<stop  offset="2.793296e-03" style="stop-color:#989898"/>
				<stop  offset="1" style="stop-color:#F1F1F1"/>
			</linearGradient>
			<path class="st3" d="M419.7,203.1c-1.4,0-2.5-0.6-2.9-1.5c-0.3-0.7-0.1-1.6,0.5-2.1c1.2-1.1,4.5-2.9,6.9-4.2c1-0.6,1.9-1,2.4-1.4
				c0.2-0.1,0.3-0.2,0.5-0.3c0.6-0.3,1-0.5,1.4-0.6c0.4-0.2,0.9-0.3,1.4-0.4c0.1,0,0.2,0,0.3,0c0.3,0,0.7,0.1,1.1,0.3
				c0.8,0.3,1.2,0.6,1.3,0.9l0,0c0,0,0.1,0.2-0.2,0.9c-0.1,0.2-0.5,1-3.5,3.6c-0.3,0.3-2,1.4-3.3,2.2c-1,0.7-1.9,1.3-2.2,1.5
				c-0.1,0.1-0.2,0.2-0.4,0.2l-0.3,0.2c-0.5,0.3-1,0.5-1.4,0.6C420.6,203,420.1,203.1,419.7,203.1L419.7,203.1z"/>
			<g>
				<path class="st2" d="M430.1,193.2c0.2,0,0.5,0.1,0.7,0.2c0.1,0,0.1,0,0.2,0.1c0.4,0.1,0.7,0.3,0.7,0.3c0,0.1,0,0.2-0.1,0.4
					c-0.1,0.1-0.5,0.9-3.3,3.3c-0.3,0.2-2.1,1.5-3.2,2.2c-1,0.7-1.9,1.3-2.3,1.5c-0.1,0.1-0.2,0.1-0.3,0.2l-0.3,0.2
					c-0.4,0.3-0.8,0.4-1.2,0.5c-0.5,0.1-0.9,0.1-1.3,0.1c-1.1,0-2-0.4-2.2-1.1c-0.2-0.5-0.1-1,0.3-1.3c1.1-1.1,4.5-2.9,6.7-4.1
					c1-0.6,1.9-1,2.5-1.4c0.1-0.1,0.3-0.2,0.4-0.2c0.5-0.3,1-0.5,1.3-0.6c0.4-0.2,0.8-0.3,1.3-0.4
					C430,193.2,430.1,193.2,430.1,193.2 M430.1,191.8c-0.2,0-0.3,0-0.5,0c-0.6,0.1-1.1,0.3-1.5,0.4c-0.4,0.1-0.9,0.4-1.4,0.6
					c-0.2,0.1-0.4,0.2-0.5,0.3c-1.8,1.1-7.7,4-9.4,5.7c-1.7,1.7-0.8,4.9,2.9,4.9c0.5,0,1-0.1,1.6-0.2c0.6-0.1,1.1-0.4,1.6-0.7
					l0.3-0.2c0.1-0.1,0.3-0.2,0.4-0.3c0.8-0.6,5-3.3,5.6-3.8c2.3-2,3.5-3.3,3.7-3.9c0.2-0.6,0.3-1.1,0.2-1.4
					c-0.2-0.5-0.8-0.9-1.7-1.3C431,191.9,430.6,191.8,430.1,191.8L430.1,191.8z"/>
			</g>
		</g>
		<g>
			
				<linearGradient id="SVGID_3_" gradientUnits="userSpaceOnUse" x1="496.5027" y1="479.3584" x2="878.3163" y2="479.3584" gradientTransform="matrix(1.0362 5.012016e-02 -0.1322 0.9587 -438.1525 -283.4361)">
				<stop  offset="2.793296e-03" style="stop-color:#B2B2B2"/>
				<stop  offset="0.8255" style="stop-color:#DCDCDC"/>
				<stop  offset="1" style="stop-color:#E5E5E5"/>
			</linearGradient>
			<path class="st4" d="M182.1,248.7c-10.5,0-21.5-0.2-33.5-0.5c-47.2-1.3-82.6-7.3-105.2-17.7c-16.7-7.7-26.3-17.9-28.3-30.1
				c-1.8-10.5,0.1-19.9,5.4-27c4.6-6.2,11.5-10.5,18.7-11.4c0.9-0.1,1.9-0.2,2.8-0.2c1.5,0,2.8,0.2,4.1,0.5c1.1,0.3,2.1,0.7,3,1.3
				c2.6,1.6,4.2,4.1,4.3,7.1c0.2,4.7-2.9,9.7-8.6,13.7c-4.3,3.1-8.6,8.9-8,16.1c0.5,5.8,4.5,14.3,20.6,21.9c0.6,0.3,1.3,0.6,1.9,0.9
				c29.4,13.2,72.8,19.4,136.6,19.4c15.2,0,32.1-0.4,50.2-1.1c98.2-7.8,151.6-30.9,157.7-33.7c1.2-0.3,2.1-0.5,2.8-0.5
				c1,0,1.8,0.3,2.9,1.1c0.5,0.3,0.6,0.6,0.6,0.6c0,0.2-0.4,1-5.4,2.7C328.3,238,263.9,248.7,182.1,248.7z"/>
			<g>
				<path class="st2" d="M41.9,162.4c1.4,0,2.7,0.2,3.9,0.5c1,0.3,1.9,0.7,2.8,1.2c2.4,1.5,3.8,3.8,3.9,6.5
					c0.2,4.4-2.9,9.3-8.3,13.1c-4.4,3.2-9,9.3-8.3,16.8c0.5,6,4.6,14.8,21.1,22.5c0.6,0.3,1.3,0.6,1.9,0.9
					c29.5,13.3,73,19.5,136.9,19.5c15.2,0,32.2-0.4,50.3-1.1c0,0,0,0,0.1,0c98-7.8,151.5-30.9,157.8-33.7c1.1-0.3,1.9-0.5,2.6-0.5
					c0.8,0,1.5,0.2,2.5,0.9c0,0,0,0,0,0c-0.5,0.4-1.7,1-4.7,2C328.2,237.3,263.8,248,182.1,248c-10.5,0-21.5-0.2-33.5-0.5
					c-47.1-1.3-82.4-7.3-105-17.7c-16.5-7.6-25.9-17.6-27.9-29.6c-1.7-10.3,0.1-19.5,5.2-26.5c4.4-6,11.2-10.2,18.2-11.1
					C40.1,162.5,41,162.4,41.9,162.4 M41.9,160.9c-0.9,0-1.9,0.1-2.9,0.2c-12.6,1.7-28.8,14.4-24.7,39.3
					c2.1,12.7,11.9,22.9,28.7,30.7c22.8,10.5,58.6,16.5,105.5,17.8c11.4,0.3,22.5,0.5,33.5,0.5c72.3,0,138.4-8,222.8-36.9
					c6.4-2.1,6.8-3.4,5-4.6c-1.2-0.8-2.1-1.2-3.3-1.2c-0.8,0-1.8,0.2-3.1,0.5c-12.5,5.7-65.6,26.4-157.5,33.6
					c-17.9,0.7-34.6,1.1-50.2,1.1c-62,0-106.2-5.8-136.3-19.3c-0.6-0.3-1.3-0.6-1.9-0.9c-27.5-12.9-22.1-30-12.6-36.8
					c10.7-7.6,11.2-17.8,4.2-22.1c-0.9-0.6-2-1-3.1-1.3C44.9,161.1,43.4,160.9,41.9,160.9L41.9,160.9z"/>
			</g>
		</g>
	</g>
	<g>
		<g>
			
				<linearGradient id="SVGID_4_" gradientUnits="userSpaceOnUse" x1="-18785.5957" y1="-698.135" x2="-18776.2383" y2="-698.135" gradientTransform="matrix(-0.5023 -0.5786 0.9735 -0.8837 -8631.1885 -11425.0625)">
				<stop  offset="2.793296e-03" style="stop-color:#989898"/>
				<stop  offset="1" style="stop-color:#F1F1F1"/>
			</linearGradient>
			<path class="st5" d="M117.3,61.2c-0.3,0-0.7-0.1-1.1-0.3c-0.9-0.4-1.1-0.7-1.2-0.8c0,0,0,0,0,0c0,0,0-0.1,0.1-0.5
				c0.4-0.3,1.9-1.2,3-1.8c1.6-0.9,3.2-1.8,4.1-2.5c0.4-0.3,1-0.7,1.6-1c0.1-0.1,0.2-0.1,0.3-0.2l0.3-0.1c0.4-0.2,0.8-0.3,1.1-0.3
				c0.2,0,0.4,0,0.6,0c1.9,0,2.9,0.9,3.2,1.7c0.2,0.5,0.1,1-0.3,1.3c-0.9,0.7-4.2,2-6.4,2.8c-1.2,0.5-2.2,0.8-2.7,1.1
				c-0.1,0.1-0.2,0.1-0.4,0.2c-0.5,0.2-0.8,0.3-1.1,0.4c-0.3,0.1-0.7,0.2-1.2,0.2C117.4,61.2,117.4,61.2,117.3,61.2z"/>
			<g>
				<path class="st2" d="M126.2,54.3c1.5,0,2.3,0.6,2.5,1.2c0.1,0.2,0.1,0.4-0.1,0.5c-0.8,0.7-4.1,1.9-6.2,2.7
					c-1.2,0.5-2.2,0.8-2.7,1.1c-0.1,0-0.2,0.1-0.3,0.1c-0.4,0.2-0.8,0.3-1.1,0.3c-0.3,0.1-0.7,0.1-1.1,0.2c-0.1,0-0.3,0-0.7-0.2
					c0,0-0.1,0-0.1-0.1c-0.2-0.1-0.4-0.2-0.5-0.3c0.6-0.4,1.7-1,2.6-1.5c1.6-0.9,3.3-1.8,4.2-2.5c0.4-0.3,0.9-0.7,1.5-1
					c0.1,0,0.2-0.1,0.2-0.1l0.3-0.1c0.3-0.1,0.6-0.2,0.9-0.3C125.9,54.3,126,54.3,126.2,54.3 M126.2,52.9c-0.2,0-0.4,0-0.6,0
					c-0.5,0-0.9,0.2-1.4,0.4l-0.3,0.1c-0.1,0.1-0.2,0.1-0.4,0.2c-0.6,0.4-1.2,0.7-1.7,1.1c-1.9,1.4-7.2,4-7.4,4.5
					c-0.2,0.5-0.2,0.9-0.1,1.1c0.2,0.4,0.7,0.8,1.5,1.2c0.5,0.3,1,0.4,1.4,0.4c0.1,0,0.1,0,0.2,0c0.5,0,0.9-0.1,1.3-0.2
					c0.3-0.1,0.7-0.2,1.2-0.4c0.1-0.1,0.3-0.1,0.4-0.2c1.5-0.7,7.8-2.8,9.2-4C131.1,55.9,129.9,52.9,126.2,52.9L126.2,52.9z"/>
			</g>
		</g>
		<g>
			
				<linearGradient id="SVGID_5_" gradientUnits="userSpaceOnUse" x1="-12162.957" y1="-9127.8184" x2="-11816.9688" y2="-9127.8184" gradientTransform="matrix(-1.0004 -3.538129e-02 -1.412287e-02 -1.0001 -11811.4375 -9507.7002)">
				<stop  offset="2.793296e-03" style="stop-color:#B2B2B2"/>
				<stop  offset="0.8255" style="stop-color:#DCDCDC"/>
				<stop  offset="1" style="stop-color:#E5E5E5"/>
			</linearGradient>
			<path class="st6" d="M464.8,82.7c-1.2,0-2.4-0.1-3.4-0.4c-1-0.2-1.9-0.6-2.7-1c-2.8-1.4-4.5-3.7-4.8-6.3
				c-0.3-3.4,1.8-6.9,5.7-9.8c3.9-2.8,5.8-7.1,5.2-11.5c-0.7-5-4.9-12.3-21.1-18.6c-0.6-0.2-1.2-0.5-1.8-0.7
				c-25.8-9.6-61.5-14.1-112.2-14.1c-15.9,0-33.1,0.4-52.6,1.3c-84.2,7-127.7,25.6-132.7,27.9c-1,0.3-1.8,0.4-2.4,0.4
				c-0.8,0-1.5-0.2-2.6-0.8c-0.5-0.3-0.6-0.4-0.6-0.4h0c0,0,0.4-0.7,4.2-1.9c65.1-22,122.6-31,198.6-31c6.1,0,12.4,0.1,19.1,0.2
				c41.2,0.6,72.8,5,93.8,13c15.5,5.9,25.1,13.8,28.5,23.4c2.8,8,2.5,15.2-0.9,20.8c-3.1,5-8.6,8.6-14.8,9.4
				C466.5,82.6,465.6,82.7,464.8,82.7z"/>
			<g>
				<path class="st2" d="M341.6,16.4c6.1,0,12.4,0.1,19.1,0.2c41.1,0.6,72.6,5,93.5,13c15.3,5.8,24.8,13.6,28.1,23
					c2.7,7.8,2.5,14.8-0.8,20.2c-3,4.9-8.3,8.2-14.3,9.1c-0.8,0.1-1.6,0.2-2.4,0.2c-1.2,0-2.3-0.1-3.3-0.4c-0.9-0.2-1.8-0.5-2.6-0.9
					c-2.6-1.3-4.1-3.3-4.4-5.7c-0.3-3.1,1.7-6.4,5.4-9.2c4.1-3,6.1-7.6,5.5-12.2c-0.7-5.2-5-12.8-21.6-19.2
					c-0.6-0.2-1.2-0.5-1.8-0.7c-25.9-9.7-61.6-14.2-112.4-14.2c-15.9,0-33.1,0.4-52.6,1.3c0,0,0,0-0.1,0
					c-84,6.9-127.6,25.6-132.8,27.9c-0.9,0.3-1.6,0.4-2.1,0.4c-0.6,0-1.1-0.1-1.9-0.5c0.5-0.3,1.5-0.7,3.1-1.2
					c34.9-11.8,68.1-19.9,101.5-24.8C274.1,18.4,304.8,16.4,341.6,16.4L341.6,16.4 M341.6,15C274.7,15,216,21.3,142.8,46
					c-5.3,1.7-5.5,2.7-3.8,3.7c1.1,0.6,2,0.9,3,0.9c0.7,0,1.6-0.2,2.6-0.4c10.1-4.6,53.5-21.3,132.4-27.8c19-0.9,36.4-1.3,52.6-1.3
					c49.2,0,85.6,4.2,111.9,14.1c0.6,0.2,1.2,0.4,1.8,0.7c25.5,9.9,23.1,23.4,15.7,28.9c-8.3,6.1-7.4,14.1-0.8,17.4
					c0.9,0.4,1.8,0.8,2.9,1c1.1,0.3,2.3,0.4,3.6,0.4c0.9,0,1.7-0.1,2.6-0.2c10.7-1.4,23.2-11.6,16.3-31.1c-3.5-10-13.4-17.9-29-23.9
					c-21.2-8.1-53.1-12.4-94-13.1C354.3,15,347.9,15,341.6,15L341.6,15z"/>
			</g>
		</g>
	</g>
</g>
</svg>
