<?xml version="1.0" encoding="utf-8"?>
<!-- Generator: Adobe Illustrator 24.0.0, SVG Export Plug-In . SVG Version: 6.00 Build 0)  -->
<svg version="1.1" id="Capa_1" xmlns="http://www.w3.org/2000/svg" xmlns:xlink="http://www.w3.org/1999/xlink" x="0px" y="0px"
	 viewBox="0 0 308.4 308.4" style="enable-background:new 0 0 308.4 308.4;" xml:space="preserve">
<style type="text/css">
	.st0{fill:#FFFFFF;}
</style>
<g>
	<g>
		<path class="st0" d="M154,18.3c25.6,0,46.3,20.9,46.3,46.5c0,25.4-20.8,46.3-46.3,46.3c-25.6,0-46.3-20.9-46.3-46.3
			C107.7,39.2,128.5,18.3,154,18.3 M154,4.4c-33.2,0-60.2,27.1-60.2,60.3c0,33.2,27,60.2,60.2,60.2s60.2-27,60.2-60.2
			C214.2,31.5,187.2,4.4,154,4.4L154,4.4z"/>
	</g>
	<g>
		<path class="st0" d="M185.5,156.8c43.7,0,79.3,35.5,79.3,79.2v34.3c0,10.8-8.7,19.5-19.5,19.5c-10.8,0-171.2,0-182,0
			c-10.8,0-19.5-8.7-19.5-19.5V236c0-43.7,35.5-79.2,79.2-79.2H185.5 M185.5,143h-62.6c-51.3,0-93.1,41.8-93.1,93.1v34.3
			c0,18.4,15,33.4,33.4,33.4c16.4,0,165.6,0,182,0c18.4,0,33.4-15,33.4-33.4V236C278.6,184.7,236.9,143,185.5,143L185.5,143z"/>
	</g>
</g>
</svg>
